<?xml version="1.0" encoding="utf-8" standalone="no"?>
<!DOCTYPE svg PUBLIC "-//W3C//DTD SVG 1.1//EN"
  "http://www.w3.org/Graphics/SVG/1.1/DTD/svg11.dtd">
<!-- Created with matplotlib (http://matplotlib.org/) -->
<svg height="432pt" version="1.1" viewBox="0 0 720 432" width="720pt" xmlns="http://www.w3.org/2000/svg" xmlns:xlink="http://www.w3.org/1999/xlink">
 <defs>
  <style type="text/css">
*{stroke-linecap:butt;stroke-linejoin:round;stroke-miterlimit:100000;}
  </style>
 </defs>
 <g id="figure_1">
  <g id="patch_1">
   <path d="M 0 432 
L 720 432 
L 720 0 
L 0 0 
z
" style="fill:#ffffff;"/>
  </g>
  <g id="axes_1">
   <g id="patch_2">
    <path d="M 90 345.6 
L 648 345.6 
L 648 43.2 
L 90 43.2 
z
" style="fill:#ffffff;"/>
   </g>
   <g id="PolyCollection_1">
    <defs>
     <path d="M 90 -197.28 
L 90 -217.44 
L 91.571831 -192.24 
L 93.143662 -182.16 
L 94.715493 -202.32 
L 96.287324 -207.36 
L 97.859155 -207.36 
L 99.430986 -207.36 
L 101.002817 -207.36 
L 102.574648 -192.24 
L 104.146479 -182.16 
L 105.71831 -167.04 
L 107.290141 -202.32 
L 108.861972 -227.52 
L 110.433803 -227.52 
L 112.005634 -227.52 
L 113.577465 -242.64 
L 115.149296 -262.8 
L 116.721127 -227.52 
L 118.292958 -212.4 
L 119.864789 -217.44 
L 121.43662 -257.76 
L 123.008451 -257.76 
L 124.580282 -262.8 
L 126.152113 -227.52 
L 127.723944 -217.44 
L 129.295775 -217.44 
L 130.867606 -262.8 
L 132.439437 -207.36 
L 134.011268 -202.32 
L 135.583099 -197.28 
L 137.15493 -172.08 
L 138.726761 -182.16 
L 140.298592 -197.28 
L 141.870423 -172.08 
L 143.442254 -156.96 
L 145.014085 -162 
L 146.585915 -146.88 
L 148.157746 -167.04 
L 149.729577 -151.92 
L 151.301408 -126.72 
L 152.873239 -146.88 
L 154.44507 -126.72 
L 156.016901 -151.92 
L 157.588732 -167.04 
L 159.160563 -182.16 
L 160.732394 -207.36 
L 162.304225 -172.08 
L 163.876056 -172.08 
L 165.447887 -182.16 
L 167.019718 -172.08 
L 168.591549 -162 
L 170.16338 -172.08 
L 171.735211 -151.92 
L 173.307042 -172.08 
L 174.878873 -182.16 
L 176.450704 -212.4 
L 178.022535 -217.44 
L 179.594366 -202.32 
L 181.166197 -217.44 
L 182.738028 -197.28 
L 184.309859 -162 
L 185.88169 -136.8 
L 187.453521 -126.72 
L 189.025352 -167.04 
L 190.597183 -172.08 
L 192.169014 -212.4 
L 193.740845 -212.4 
L 195.312676 -192.24 
L 196.884507 -217.44 
L 198.456338 -212.4 
L 200.028169 -207.36 
L 201.6 -212.4 
L 203.171831 -207.36 
L 204.743662 -202.32 
L 206.315493 -182.16 
L 207.887324 -202.32 
L 209.459155 -182.16 
L 211.030986 -197.28 
L 212.602817 -197.28 
L 214.174648 -207.36 
L 215.746479 -212.4 
L 217.31831 -207.36 
L 218.890141 -202.32 
L 220.461972 -217.44 
L 222.033803 -207.36 
L 223.605634 -207.36 
L 225.177465 -227.52 
L 226.749296 -242.64 
L 228.321127 -237.6 
L 229.892958 -227.52 
L 231.464789 -197.28 
L 233.03662 -197.28 
L 234.608451 -212.4 
L 236.180282 -207.36 
L 237.752113 -212.4 
L 239.323944 -227.52 
L 240.895775 -227.52 
L 242.467606 -212.4 
L 244.039437 -197.28 
L 245.611268 -202.32 
L 247.183099 -237.6 
L 248.75493 -217.44 
L 250.326761 -217.44 
L 251.898592 -217.44 
L 253.470423 -212.4 
L 255.042254 -252.72 
L 256.614085 -227.52 
L 258.185915 -227.52 
L 259.757746 -247.68 
L 261.329577 -252.72 
L 262.901408 -217.44 
L 264.473239 -237.6 
L 266.04507 -217.44 
L 267.616901 -237.6 
L 269.188732 -237.6 
L 270.760563 -252.72 
L 272.332394 -227.52 
L 273.904225 -237.6 
L 275.476056 -237.6 
L 277.047887 -272.88 
L 278.619718 -328.32 
L 280.191549 -343.44 
L 281.76338 -318.24 
L 283.335211 -288 
L 284.907042 -242.64 
L 286.478873 -242.64 
L 288.050704 -252.72 
L 289.622535 -272.88 
L 291.194366 -293.04 
L 292.766197 -247.68 
L 294.338028 -227.52 
L 295.909859 -272.88 
L 297.48169 -282.96 
L 299.053521 -247.68 
L 300.625352 -272.88 
L 302.197183 -338.4 
L 303.769014 -272.88 
L 305.340845 -242.64 
L 306.912676 -242.64 
L 308.484507 -242.64 
L 310.056338 -272.88 
L 311.628169 -282.96 
L 313.2 -272.88 
L 314.771831 -262.8 
L 316.343662 -308.16 
L 317.915493 -272.88 
L 319.487324 -257.76 
L 321.059155 -247.68 
L 322.630986 -272.88 
L 324.202817 -252.72 
L 325.774648 -252.72 
L 327.346479 -262.8 
L 328.91831 -262.8 
L 330.490141 -237.6 
L 332.061972 -288 
L 333.633803 -262.8 
L 335.205634 -282.96 
L 336.777465 -262.8 
L 338.349296 -257.76 
L 339.921127 -272.88 
L 341.492958 -282.96 
L 343.064789 -282.96 
L 344.63662 -272.88 
L 346.208451 -257.76 
L 347.780282 -262.8 
L 349.352113 -282.96 
L 350.923944 -282.96 
L 352.495775 -272.88 
L 354.067606 -262.8 
L 355.639437 -282.96 
L 357.211268 -272.88 
L 358.783099 -288 
L 360.35493 -272.88 
L 361.926761 -272.88 
L 363.498592 -257.76 
L 365.070423 -262.8 
L 366.642254 -282.96 
L 368.214085 -308.16 
L 369.785915 -318.24 
L 371.357746 -303.12 
L 372.929577 -272.88 
L 374.501408 -308.16 
L 376.073239 -343.44 
L 377.64507 -308.16 
L 379.216901 -282.96 
L 380.788732 -333.36 
L 382.360563 -298.08 
L 383.932394 -293.04 
L 385.504225 -262.8 
L 387.076056 -272.88 
L 388.647887 -293.04 
L 390.219718 -272.88 
L 391.791549 -282.96 
L 393.36338 -272.88 
L 394.935211 -293.04 
L 396.507042 -308.16 
L 398.078873 -293.04 
L 399.650704 -282.96 
L 401.222535 -303.12 
L 402.794366 -288 
L 404.366197 -272.88 
L 405.938028 -333.36 
L 407.509859 -303.12 
L 409.08169 -298.08 
L 410.653521 -282.96 
L 412.225352 -272.88 
L 413.797183 -272.88 
L 415.369014 -293.04 
L 416.940845 -282.96 
L 418.512676 -293.04 
L 420.084507 -293.04 
L 421.656338 -318.24 
L 423.228169 -333.36 
L 424.8 -318.24 
L 426.371831 -308.16 
L 427.943662 -308.16 
L 429.515493 -318.24 
L 431.087324 -303.12 
L 432.659155 -303.12 
L 434.230986 -308.16 
L 435.802817 -293.04 
L 437.374648 -298.08 
L 438.946479 -308.16 
L 440.51831 -308.16 
L 442.090141 -288 
L 443.661972 -308.16 
L 445.233803 -303.12 
L 446.805634 -303.12 
L 448.377465 -298.08 
L 449.949296 -303.12 
L 451.521127 -303.12 
L 453.092958 -318.24 
L 454.664789 -338.4 
L 456.23662 -308.16 
L 457.808451 -308.16 
L 459.380282 -272.88 
L 460.952113 -282.96 
L 462.523944 -272.88 
L 464.095775 -298.08 
L 465.667606 -293.04 
L 467.239437 -282.96 
L 468.811268 -293.04 
L 470.383099 -262.8 
L 471.95493 -272.88 
L 473.526761 -298.08 
L 475.098592 -272.88 
L 476.670423 -272.88 
L 478.242254 -288 
L 479.814085 -272.88 
L 481.385915 -272.88 
L 482.957746 -272.88 
L 484.529577 -272.88 
L 486.101408 -303.12 
L 487.673239 -272.88 
L 489.24507 -282.96 
L 490.816901 -293.04 
L 492.388732 -272.88 
L 493.960563 -293.04 
L 495.532394 -298.08 
L 497.104225 -272.88 
L 498.676056 -288 
L 500.247887 -282.96 
L 501.819718 -293.04 
L 503.391549 -308.16 
L 504.96338 -272.88 
L 506.535211 -298.08 
L 508.107042 -298.08 
L 509.678873 -272.88 
L 511.250704 -298.08 
L 512.822535 -293.04 
L 514.394366 -272.88 
L 515.966197 -272.88 
L 517.538028 -257.76 
L 519.109859 -257.76 
L 520.68169 -262.8 
L 522.253521 -272.88 
L 523.825352 -262.8 
L 525.397183 -262.8 
L 526.969014 -227.52 
L 528.540845 -217.44 
L 530.112676 -227.52 
L 531.684507 -262.8 
L 533.256338 -257.76 
L 534.828169 -242.64 
L 536.4 -252.72 
L 537.971831 -252.72 
L 539.543662 -242.64 
L 541.115493 -257.76 
L 542.687324 -247.68 
L 544.259155 -262.8 
L 545.830986 -247.68 
L 547.402817 -242.64 
L 548.974648 -237.6 
L 550.546479 -247.68 
L 552.11831 -237.6 
L 553.690141 -227.52 
L 555.261972 -217.44 
L 556.833803 -237.6 
L 558.405634 -217.44 
L 559.977465 -237.6 
L 561.549296 -212.4 
L 563.121127 -237.6 
L 564.692958 -227.52 
L 566.264789 -202.32 
L 567.83662 -217.44 
L 569.408451 -217.44 
L 570.980282 -217.44 
L 572.552113 -212.4 
L 574.123944 -212.4 
L 575.695775 -217.44 
L 577.267606 -237.6 
L 578.839437 -227.52 
L 580.411268 -207.36 
L 581.983099 -207.36 
L 583.55493 -207.36 
L 585.126761 -202.32 
L 586.698592 -202.32 
L 588.270423 -202.32 
L 589.842254 -202.32 
L 591.414085 -202.32 
L 592.985915 -212.4 
L 594.557746 -247.68 
L 596.129577 -217.44 
L 597.701408 -207.36 
L 599.273239 -227.52 
L 600.84507 -202.32 
L 602.416901 -197.28 
L 603.988732 -202.32 
L 605.560563 -182.16 
L 607.132394 -182.16 
L 608.704225 -167.04 
L 610.276056 -146.88 
L 611.847887 -167.04 
L 613.419718 -172.08 
L 614.991549 -167.04 
L 616.56338 -212.4 
L 618.135211 -182.16 
L 619.707042 -172.08 
L 621.278873 -182.16 
L 622.850704 -212.4 
L 624.422535 -237.6 
L 625.994366 -247.68 
L 627.566197 -212.4 
L 629.138028 -212.4 
L 630.709859 -217.44 
L 632.28169 -197.28 
L 633.853521 -217.44 
L 635.425352 -227.52 
L 636.997183 -237.6 
L 638.569014 -207.36 
L 640.140845 -202.32 
L 641.712676 -212.4 
L 643.284507 -217.44 
L 644.856338 -217.44 
L 646.428169 -197.28 
L 648 -212.4 
L 648 -197.28 
L 648 -197.28 
L 646.428169 -187.2 
L 644.856338 -207.36 
L 643.284507 -207.36 
L 641.712676 -202.32 
L 640.140845 -177.12 
L 638.569014 -187.2 
L 636.997183 -227.52 
L 635.425352 -222.48 
L 633.853521 -197.28 
L 632.28169 -187.2 
L 630.709859 -197.28 
L 629.138028 -187.2 
L 627.566197 -202.32 
L 625.994366 -227.52 
L 624.422535 -227.52 
L 622.850704 -187.2 
L 621.278873 -167.04 
L 619.707042 -146.88 
L 618.135211 -156.96 
L 616.56338 -187.2 
L 614.991549 -151.92 
L 613.419718 -156.96 
L 611.847887 -146.88 
L 610.276056 -126.72 
L 608.704225 -146.88 
L 607.132394 -156.96 
L 605.560563 -167.04 
L 603.988732 -192.24 
L 602.416901 -187.2 
L 600.84507 -187.2 
L 599.273239 -207.36 
L 597.701408 -182.16 
L 596.129577 -207.36 
L 594.557746 -227.52 
L 592.985915 -192.24 
L 591.414085 -177.12 
L 589.842254 -167.04 
L 588.270423 -167.04 
L 586.698592 -167.04 
L 585.126761 -167.04 
L 583.55493 -177.12 
L 581.983099 -187.2 
L 580.411268 -187.2 
L 578.839437 -197.28 
L 577.267606 -227.52 
L 575.695775 -187.2 
L 574.123944 -187.2 
L 572.552113 -192.24 
L 570.980282 -192.24 
L 569.408451 -197.28 
L 567.83662 -207.36 
L 566.264789 -192.24 
L 564.692958 -207.36 
L 563.121127 -212.4 
L 561.549296 -192.24 
L 559.977465 -207.36 
L 558.405634 -197.28 
L 556.833803 -197.28 
L 555.261972 -192.24 
L 553.690141 -207.36 
L 552.11831 -207.36 
L 550.546479 -227.52 
L 548.974648 -212.4 
L 547.402817 -227.52 
L 545.830986 -227.52 
L 544.259155 -217.44 
L 542.687324 -227.52 
L 541.115493 -242.64 
L 539.543662 -227.52 
L 537.971831 -212.4 
L 536.4 -237.6 
L 534.828169 -237.6 
L 533.256338 -242.64 
L 531.684507 -232.56 
L 530.112676 -197.28 
L 528.540845 -197.28 
L 526.969014 -217.44 
L 525.397183 -247.68 
L 523.825352 -247.68 
L 522.253521 -257.76 
L 520.68169 -217.44 
L 519.109859 -217.44 
L 517.538028 -232.56 
L 515.966197 -237.6 
L 514.394366 -257.76 
L 512.822535 -267.84 
L 511.250704 -272.88 
L 509.678873 -262.8 
L 508.107042 -262.8 
L 506.535211 -257.76 
L 504.96338 -247.68 
L 503.391549 -277.92 
L 501.819718 -267.84 
L 500.247887 -267.84 
L 498.676056 -277.92 
L 497.104225 -247.68 
L 495.532394 -277.92 
L 493.960563 -267.84 
L 492.388732 -262.8 
L 490.816901 -277.92 
L 489.24507 -262.8 
L 487.673239 -262.8 
L 486.101408 -267.84 
L 484.529577 -247.68 
L 482.957746 -237.6 
L 481.385915 -257.76 
L 479.814085 -262.8 
L 478.242254 -267.84 
L 476.670423 -257.76 
L 475.098592 -257.76 
L 473.526761 -257.76 
L 471.95493 -257.76 
L 470.383099 -247.68 
L 468.811268 -257.76 
L 467.239437 -257.76 
L 465.667606 -267.84 
L 464.095775 -267.84 
L 462.523944 -262.8 
L 460.952113 -267.84 
L 459.380282 -267.84 
L 457.808451 -282.96 
L 456.23662 -288 
L 454.664789 -288 
L 453.092958 -267.84 
L 451.521127 -277.92 
L 449.949296 -277.92 
L 448.377465 -277.92 
L 446.805634 -277.92 
L 445.233803 -277.92 
L 443.661972 -288 
L 442.090141 -277.92 
L 440.51831 -288 
L 438.946479 -298.08 
L 437.374648 -288 
L 435.802817 -282.96 
L 434.230986 -277.92 
L 432.659155 -267.84 
L 431.087324 -282.96 
L 429.515493 -277.92 
L 427.943662 -288 
L 426.371831 -277.92 
L 424.8 -277.92 
L 423.228169 -288 
L 421.656338 -277.92 
L 420.084507 -272.88 
L 418.512676 -267.84 
L 416.940845 -267.84 
L 415.369014 -277.92 
L 413.797183 -262.8 
L 412.225352 -262.8 
L 410.653521 -272.88 
L 409.08169 -277.92 
L 407.509859 -282.96 
L 405.938028 -288 
L 404.366197 -262.8 
L 402.794366 -272.88 
L 401.222535 -267.84 
L 399.650704 -262.8 
L 398.078873 -267.84 
L 396.507042 -277.92 
L 394.935211 -277.92 
L 393.36338 -267.84 
L 391.791549 -267.84 
L 390.219718 -267.84 
L 388.647887 -267.84 
L 387.076056 -262.8 
L 385.504225 -257.76 
L 383.932394 -272.88 
L 382.360563 -277.92 
L 380.788732 -282.96 
L 379.216901 -267.84 
L 377.64507 -277.92 
L 376.073239 -298.08 
L 374.501408 -267.84 
L 372.929577 -262.8 
L 371.357746 -272.88 
L 369.785915 -282.96 
L 368.214085 -267.84 
L 366.642254 -257.76 
L 365.070423 -247.68 
L 363.498592 -247.68 
L 361.926761 -257.76 
L 360.35493 -262.8 
L 358.783099 -267.84 
L 357.211268 -247.68 
L 355.639437 -247.68 
L 354.067606 -237.6 
L 352.495775 -247.68 
L 350.923944 -247.68 
L 349.352113 -247.68 
L 347.780282 -237.6 
L 346.208451 -237.6 
L 344.63662 -257.76 
L 343.064789 -242.64 
L 341.492958 -247.68 
L 339.921127 -247.68 
L 338.349296 -237.6 
L 336.777465 -247.68 
L 335.205634 -247.68 
L 333.633803 -237.6 
L 332.061972 -242.64 
L 330.490141 -222.48 
L 328.91831 -237.6 
L 327.346479 -237.6 
L 325.774648 -237.6 
L 324.202817 -247.68 
L 322.630986 -247.68 
L 321.059155 -237.6 
L 319.487324 -247.68 
L 317.915493 -242.64 
L 316.343662 -257.76 
L 314.771831 -237.6 
L 313.2 -237.6 
L 311.628169 -232.56 
L 310.056338 -237.6 
L 308.484507 -227.52 
L 306.912676 -237.6 
L 305.340845 -232.56 
L 303.769014 -257.76 
L 302.197183 -272.88 
L 300.625352 -247.68 
L 299.053521 -237.6 
L 297.48169 -257.76 
L 295.909859 -242.64 
L 294.338028 -222.48 
L 292.766197 -237.6 
L 291.194366 -247.68 
L 289.622535 -237.6 
L 288.050704 -227.52 
L 286.478873 -227.52 
L 284.907042 -227.52 
L 283.335211 -232.56 
L 281.76338 -272.88 
L 280.191549 -298.08 
L 278.619718 -257.76 
L 277.047887 -222.48 
L 275.476056 -217.44 
L 273.904225 -217.44 
L 272.332394 -217.44 
L 270.760563 -222.48 
L 269.188732 -197.28 
L 267.616901 -207.36 
L 266.04507 -202.32 
L 264.473239 -197.28 
L 262.901408 -207.36 
L 261.329577 -227.52 
L 259.757746 -232.56 
L 258.185915 -207.36 
L 256.614085 -212.4 
L 255.042254 -217.44 
L 253.470423 -207.36 
L 251.898592 -197.28 
L 250.326761 -187.2 
L 248.75493 -177.12 
L 247.183099 -187.2 
L 245.611268 -187.2 
L 244.039437 -177.12 
L 242.467606 -192.24 
L 240.895775 -207.36 
L 239.323944 -197.28 
L 237.752113 -197.28 
L 236.180282 -172.08 
L 234.608451 -177.12 
L 233.03662 -177.12 
L 231.464789 -177.12 
L 229.892958 -197.28 
L 228.321127 -197.28 
L 226.749296 -197.28 
L 225.177465 -177.12 
L 223.605634 -187.2 
L 222.033803 -197.28 
L 220.461972 -197.28 
L 218.890141 -187.2 
L 217.31831 -167.04 
L 215.746479 -182.16 
L 214.174648 -167.04 
L 212.602817 -156.96 
L 211.030986 -172.08 
L 209.459155 -167.04 
L 207.887324 -182.16 
L 206.315493 -167.04 
L 204.743662 -182.16 
L 203.171831 -182.16 
L 201.6 -197.28 
L 200.028169 -187.2 
L 198.456338 -197.28 
L 196.884507 -187.2 
L 195.312676 -177.12 
L 193.740845 -202.32 
L 192.169014 -177.12 
L 190.597183 -126.72 
L 189.025352 -126.72 
L 187.453521 -116.64 
L 185.88169 -116.64 
L 184.309859 -141.84 
L 182.738028 -162 
L 181.166197 -187.2 
L 179.594366 -177.12 
L 178.022535 -187.2 
L 176.450704 -177.12 
L 174.878873 -141.84 
L 173.307042 -146.88 
L 171.735211 -136.8 
L 170.16338 -146.88 
L 168.591549 -146.88 
L 167.019718 -146.88 
L 165.447887 -156.96 
L 163.876056 -156.96 
L 162.304225 -156.96 
L 160.732394 -167.04 
L 159.160563 -167.04 
L 157.588732 -151.92 
L 156.016901 -111.6 
L 154.44507 -106.56 
L 152.873239 -126.72 
L 151.301408 -116.64 
L 149.729577 -121.68 
L 148.157746 -136.8 
L 146.585915 -116.64 
L 145.014085 -131.76 
L 143.442254 -136.8 
L 141.870423 -156.96 
L 140.298592 -162 
L 138.726761 -156.96 
L 137.15493 -146.88 
L 135.583099 -167.04 
L 134.011268 -177.12 
L 132.439437 -197.28 
L 130.867606 -237.6 
L 129.295775 -187.2 
L 127.723944 -197.28 
L 126.152113 -207.36 
L 124.580282 -237.6 
L 123.008451 -237.6 
L 121.43662 -237.6 
L 119.864789 -207.36 
L 118.292958 -192.24 
L 116.721127 -207.36 
L 115.149296 -237.6 
L 113.577465 -227.52 
L 112.005634 -207.36 
L 110.433803 -212.4 
L 108.861972 -197.28 
L 107.290141 -177.12 
L 105.71831 -146.88 
L 104.146479 -167.04 
L 102.574648 -182.16 
L 101.002817 -197.28 
L 99.430986 -197.28 
L 97.859155 -197.28 
L 96.287324 -197.28 
L 94.715493 -177.12 
L 93.143662 -167.04 
L 91.571831 -177.12 
L 90 -197.28 
z
" id="m24dd96303e" style="stroke:#000000;stroke-opacity:0.1;"/>
    </defs>
    <g clip-path="url(#p291301ce53)">
     <use style="fill:#800080;fill-opacity:0.1;stroke:#000000;stroke-opacity:0.1;" x="0.0" xlink:href="#m24dd96303e" y="432.0"/>
    </g>
   </g>
   <g id="line2d_1">
    <path clip-path="url(#p291301ce53)" d="M 90 214.56 
L 91.571831 239.76 
L 93.143662 249.84 
L 94.715493 229.68 
L 96.287324 224.64 
L 101.002817 224.64 
L 102.574648 239.76 
L 104.146479 249.84 
L 105.71831 264.96 
L 107.290141 229.68 
L 108.861972 204.48 
L 112.005634 204.48 
L 113.577465 189.36 
L 115.149296 169.2 
L 116.721127 204.48 
L 118.292958 219.6 
L 119.864789 214.56 
L 121.43662 174.24 
L 123.008451 174.24 
L 124.580282 169.2 
L 126.152113 204.48 
L 127.723944 214.56 
L 129.295775 214.56 
L 130.867606 169.2 
L 132.439437 224.64 
L 135.583099 234.72 
L 137.15493 259.92 
L 138.726761 249.84 
L 140.298592 234.72 
L 141.870423 259.92 
L 143.442254 275.04 
L 145.014085 270 
L 146.585915 285.12 
L 148.157746 264.96 
L 149.729577 280.08 
L 151.301408 305.28 
L 152.873239 285.12 
L 154.44507 305.28 
L 156.016901 280.08 
L 159.160563 249.84 
L 160.732394 224.64 
L 162.304225 259.92 
L 163.876056 259.92 
L 165.447887 249.84 
L 168.591549 270 
L 170.16338 259.92 
L 171.735211 280.08 
L 173.307042 259.92 
L 174.878873 249.84 
L 176.450704 219.6 
L 178.022535 214.56 
L 179.594366 229.68 
L 181.166197 214.56 
L 182.738028 234.72 
L 184.309859 270 
L 185.88169 295.2 
L 187.453521 305.28 
L 189.025352 264.96 
L 190.597183 259.92 
L 192.169014 219.6 
L 193.740845 219.6 
L 195.312676 239.76 
L 196.884507 214.56 
L 200.028169 224.64 
L 201.6 219.6 
L 204.743662 229.68 
L 206.315493 249.84 
L 207.887324 229.68 
L 209.459155 249.84 
L 211.030986 234.72 
L 212.602817 234.72 
L 214.174648 224.64 
L 215.746479 219.6 
L 218.890141 229.68 
L 220.461972 214.56 
L 222.033803 224.64 
L 223.605634 224.64 
L 225.177465 204.48 
L 226.749296 189.36 
L 228.321127 194.4 
L 229.892958 204.48 
L 231.464789 234.72 
L 233.03662 234.72 
L 234.608451 219.6 
L 236.180282 224.64 
L 237.752113 219.6 
L 239.323944 204.48 
L 240.895775 204.48 
L 244.039437 234.72 
L 245.611268 229.68 
L 247.183099 194.4 
L 248.75493 214.56 
L 251.898592 214.56 
L 253.470423 219.6 
L 255.042254 179.28 
L 256.614085 204.48 
L 258.185915 204.48 
L 259.757746 184.32 
L 261.329577 179.28 
L 262.901408 214.56 
L 264.473239 194.4 
L 266.04507 214.56 
L 267.616901 194.4 
L 269.188732 194.4 
L 270.760563 179.28 
L 272.332394 204.48 
L 273.904225 194.4 
L 275.476056 194.4 
L 277.047887 159.12 
L 278.619718 103.68 
L 280.191549 88.56 
L 281.76338 113.76 
L 283.335211 144 
L 284.907042 189.36 
L 286.478873 189.36 
L 288.050704 179.28 
L 291.194366 138.96 
L 292.766197 184.32 
L 294.338028 204.48 
L 295.909859 159.12 
L 297.48169 149.04 
L 299.053521 184.32 
L 300.625352 159.12 
L 302.197183 93.6 
L 303.769014 159.12 
L 305.340845 189.36 
L 308.484507 189.36 
L 310.056338 159.12 
L 311.628169 149.04 
L 314.771831 169.2 
L 316.343662 123.84 
L 317.915493 159.12 
L 319.487324 174.24 
L 321.059155 184.32 
L 322.630986 159.12 
L 324.202817 179.28 
L 325.774648 179.28 
L 327.346479 169.2 
L 328.91831 169.2 
L 330.490141 194.4 
L 332.061972 144 
L 333.633803 169.2 
L 335.205634 149.04 
L 336.777465 169.2 
L 338.349296 174.24 
L 339.921127 159.12 
L 341.492958 149.04 
L 343.064789 149.04 
L 344.63662 159.12 
L 346.208451 174.24 
L 347.780282 169.2 
L 349.352113 149.04 
L 350.923944 149.04 
L 354.067606 169.2 
L 355.639437 149.04 
L 357.211268 159.12 
L 358.783099 144 
L 360.35493 159.12 
L 361.926761 159.12 
L 363.498592 174.24 
L 365.070423 169.2 
L 366.642254 149.04 
L 368.214085 123.84 
L 369.785915 113.76 
L 371.357746 128.88 
L 372.929577 159.12 
L 376.073239 88.56 
L 377.64507 123.84 
L 379.216901 149.04 
L 380.788732 98.64 
L 382.360563 133.92 
L 383.932394 138.96 
L 385.504225 169.2 
L 387.076056 159.12 
L 388.647887 138.96 
L 390.219718 159.12 
L 391.791549 149.04 
L 393.36338 159.12 
L 394.935211 138.96 
L 396.507042 123.84 
L 398.078873 138.96 
L 399.650704 149.04 
L 401.222535 128.88 
L 404.366197 159.12 
L 405.938028 98.64 
L 407.509859 128.88 
L 409.08169 133.92 
L 410.653521 149.04 
L 412.225352 159.12 
L 413.797183 159.12 
L 415.369014 138.96 
L 416.940845 149.04 
L 418.512676 138.96 
L 420.084507 138.96 
L 421.656338 113.76 
L 423.228169 98.64 
L 424.8 113.76 
L 426.371831 123.84 
L 427.943662 123.84 
L 429.515493 113.76 
L 431.087324 128.88 
L 432.659155 128.88 
L 434.230986 123.84 
L 435.802817 138.96 
L 437.374648 133.92 
L 438.946479 123.84 
L 440.51831 123.84 
L 442.090141 144 
L 443.661972 123.84 
L 445.233803 128.88 
L 446.805634 128.88 
L 448.377465 133.92 
L 449.949296 128.88 
L 451.521127 128.88 
L 453.092958 113.76 
L 454.664789 93.6 
L 456.23662 123.84 
L 457.808451 123.84 
L 459.380282 159.12 
L 460.952113 149.04 
L 462.523944 159.12 
L 464.095775 133.92 
L 465.667606 138.96 
L 467.239437 149.04 
L 468.811268 138.96 
L 470.383099 169.2 
L 471.95493 159.12 
L 473.526761 133.92 
L 475.098592 159.12 
L 476.670423 159.12 
L 478.242254 144 
L 479.814085 159.12 
L 484.529577 159.12 
L 486.101408 128.88 
L 487.673239 159.12 
L 490.816901 138.96 
L 492.388732 159.12 
L 493.960563 138.96 
L 495.532394 133.92 
L 497.104225 159.12 
L 498.676056 144 
L 500.247887 149.04 
L 501.819718 138.96 
L 503.391549 123.84 
L 504.96338 159.12 
L 506.535211 133.92 
L 508.107042 133.92 
L 509.678873 159.12 
L 511.250704 133.92 
L 512.822535 138.96 
L 514.394366 159.12 
L 515.966197 159.12 
L 517.538028 174.24 
L 519.109859 174.24 
L 520.68169 169.2 
L 522.253521 159.12 
L 523.825352 169.2 
L 525.397183 169.2 
L 526.969014 204.48 
L 528.540845 214.56 
L 530.112676 204.48 
L 531.684507 169.2 
L 533.256338 174.24 
L 534.828169 189.36 
L 536.4 179.28 
L 537.971831 179.28 
L 539.543662 189.36 
L 541.115493 174.24 
L 542.687324 184.32 
L 544.259155 169.2 
L 545.830986 184.32 
L 548.974648 194.4 
L 550.546479 184.32 
L 555.261972 214.56 
L 556.833803 194.4 
L 558.405634 214.56 
L 559.977465 194.4 
L 561.549296 219.6 
L 563.121127 194.4 
L 564.692958 204.48 
L 566.264789 229.68 
L 567.83662 214.56 
L 570.980282 214.56 
L 572.552113 219.6 
L 574.123944 219.6 
L 575.695775 214.56 
L 577.267606 194.4 
L 578.839437 204.48 
L 580.411268 224.64 
L 583.55493 224.64 
L 585.126761 229.68 
L 591.414085 229.68 
L 592.985915 219.6 
L 594.557746 184.32 
L 596.129577 214.56 
L 597.701408 224.64 
L 599.273239 204.48 
L 600.84507 229.68 
L 602.416901 234.72 
L 603.988732 229.68 
L 605.560563 249.84 
L 607.132394 249.84 
L 608.704225 264.96 
L 610.276056 285.12 
L 611.847887 264.96 
L 613.419718 259.92 
L 614.991549 264.96 
L 616.56338 219.6 
L 618.135211 249.84 
L 619.707042 259.92 
L 621.278873 249.84 
L 622.850704 219.6 
L 624.422535 194.4 
L 625.994366 184.32 
L 627.566197 219.6 
L 629.138028 219.6 
L 630.709859 214.56 
L 632.28169 234.72 
L 633.853521 214.56 
L 636.997183 194.4 
L 638.569014 224.64 
L 640.140845 229.68 
L 641.712676 219.6 
L 643.284507 214.56 
L 644.856338 214.56 
L 646.428169 234.72 
L 648 219.6 
L 648 219.6 
" style="fill:none;opacity:0.5;stroke:#ff0000;stroke-linecap:square;"/>
   </g>
   <g id="line2d_2">
    <path clip-path="url(#p291301ce53)" d="M 90 234.72 
L 91.571831 254.88 
L 93.143662 264.96 
L 94.715493 254.88 
L 96.287324 234.72 
L 101.002817 234.72 
L 104.146479 264.96 
L 105.71831 285.12 
L 107.290141 254.88 
L 108.861972 234.72 
L 110.433803 219.6 
L 112.005634 224.64 
L 113.577465 204.48 
L 115.149296 194.4 
L 116.721127 224.64 
L 118.292958 239.76 
L 119.864789 224.64 
L 121.43662 194.4 
L 124.580282 194.4 
L 126.152113 224.64 
L 129.295775 244.8 
L 130.867606 194.4 
L 132.439437 234.72 
L 134.011268 254.88 
L 135.583099 264.96 
L 137.15493 285.12 
L 138.726761 275.04 
L 140.298592 270 
L 141.870423 275.04 
L 143.442254 295.2 
L 145.014085 300.24 
L 146.585915 315.36 
L 148.157746 295.2 
L 149.729577 310.32 
L 151.301408 315.36 
L 152.873239 305.28 
L 154.44507 325.44 
L 156.016901 320.4 
L 157.588732 280.08 
L 159.160563 264.96 
L 160.732394 264.96 
L 162.304225 275.04 
L 165.447887 275.04 
L 167.019718 285.12 
L 170.16338 285.12 
L 171.735211 295.2 
L 173.307042 285.12 
L 174.878873 290.16 
L 176.450704 254.88 
L 178.022535 244.8 
L 179.594366 254.88 
L 181.166197 244.8 
L 182.738028 270 
L 184.309859 290.16 
L 185.88169 315.36 
L 187.453521 315.36 
L 189.025352 305.28 
L 190.597183 305.28 
L 192.169014 254.88 
L 193.740845 229.68 
L 195.312676 254.88 
L 198.456338 234.72 
L 200.028169 244.8 
L 201.6 234.72 
L 203.171831 249.84 
L 204.743662 249.84 
L 206.315493 264.96 
L 207.887324 249.84 
L 209.459155 264.96 
L 211.030986 259.92 
L 212.602817 275.04 
L 214.174648 264.96 
L 215.746479 249.84 
L 217.31831 264.96 
L 218.890141 244.8 
L 220.461972 234.72 
L 222.033803 234.72 
L 225.177465 254.88 
L 226.749296 234.72 
L 229.892958 234.72 
L 231.464789 254.88 
L 234.608451 254.88 
L 236.180282 259.92 
L 237.752113 234.72 
L 239.323944 234.72 
L 240.895775 224.64 
L 244.039437 254.88 
L 245.611268 244.8 
L 247.183099 244.8 
L 248.75493 254.88 
L 255.042254 214.56 
L 258.185915 224.64 
L 259.757746 199.44 
L 261.329577 204.48 
L 262.901408 224.64 
L 264.473239 234.72 
L 267.616901 224.64 
L 269.188732 234.72 
L 270.760563 209.52 
L 272.332394 214.56 
L 275.476056 214.56 
L 277.047887 209.52 
L 278.619718 174.24 
L 280.191549 133.92 
L 281.76338 159.12 
L 283.335211 199.44 
L 284.907042 204.48 
L 288.050704 204.48 
L 291.194366 184.32 
L 292.766197 194.4 
L 294.338028 209.52 
L 295.909859 189.36 
L 297.48169 174.24 
L 299.053521 194.4 
L 300.625352 184.32 
L 302.197183 159.12 
L 303.769014 174.24 
L 305.340845 199.44 
L 306.912676 194.4 
L 308.484507 204.48 
L 310.056338 194.4 
L 311.628169 199.44 
L 313.2 194.4 
L 314.771831 194.4 
L 316.343662 174.24 
L 317.915493 189.36 
L 319.487324 184.32 
L 321.059155 194.4 
L 322.630986 184.32 
L 324.202817 184.32 
L 325.774648 194.4 
L 328.91831 194.4 
L 330.490141 209.52 
L 332.061972 189.36 
L 333.633803 194.4 
L 335.205634 184.32 
L 336.777465 184.32 
L 338.349296 194.4 
L 339.921127 184.32 
L 341.492958 184.32 
L 343.064789 189.36 
L 344.63662 174.24 
L 346.208451 194.4 
L 347.780282 194.4 
L 349.352113 184.32 
L 352.495775 184.32 
L 354.067606 194.4 
L 355.639437 184.32 
L 357.211268 184.32 
L 358.783099 164.16 
L 361.926761 174.24 
L 363.498592 184.32 
L 365.070423 184.32 
L 368.214085 164.16 
L 369.785915 149.04 
L 372.929577 169.2 
L 374.501408 164.16 
L 376.073239 133.92 
L 377.64507 154.08 
L 379.216901 164.16 
L 380.788732 149.04 
L 383.932394 159.12 
L 385.504225 174.24 
L 388.647887 164.16 
L 393.36338 164.16 
L 394.935211 154.08 
L 396.507042 154.08 
L 398.078873 164.16 
L 399.650704 169.2 
L 402.794366 159.12 
L 404.366197 169.2 
L 405.938028 144 
L 410.653521 159.12 
L 412.225352 169.2 
L 413.797183 169.2 
L 415.369014 154.08 
L 416.940845 164.16 
L 418.512676 164.16 
L 421.656338 154.08 
L 423.228169 144 
L 424.8 154.08 
L 426.371831 154.08 
L 427.943662 144 
L 429.515493 154.08 
L 431.087324 149.04 
L 432.659155 164.16 
L 434.230986 154.08 
L 437.374648 144 
L 438.946479 133.92 
L 442.090141 154.08 
L 443.661972 144 
L 445.233803 154.08 
L 451.521127 154.08 
L 453.092958 164.16 
L 454.664789 144 
L 456.23662 144 
L 457.808451 149.04 
L 459.380282 164.16 
L 460.952113 164.16 
L 462.523944 169.2 
L 464.095775 164.16 
L 465.667606 164.16 
L 467.239437 174.24 
L 468.811268 174.24 
L 470.383099 184.32 
L 471.95493 174.24 
L 476.670423 174.24 
L 478.242254 164.16 
L 481.385915 174.24 
L 482.957746 194.4 
L 484.529577 184.32 
L 486.101408 164.16 
L 487.673239 169.2 
L 489.24507 169.2 
L 490.816901 154.08 
L 492.388732 169.2 
L 493.960563 164.16 
L 495.532394 154.08 
L 497.104225 184.32 
L 498.676056 154.08 
L 500.247887 164.16 
L 501.819718 164.16 
L 503.391549 154.08 
L 504.96338 184.32 
L 506.535211 174.24 
L 508.107042 169.2 
L 509.678873 169.2 
L 511.250704 159.12 
L 512.822535 164.16 
L 514.394366 174.24 
L 515.966197 194.4 
L 517.538028 199.44 
L 519.109859 214.56 
L 520.68169 214.56 
L 522.253521 174.24 
L 523.825352 184.32 
L 525.397183 184.32 
L 526.969014 214.56 
L 528.540845 234.72 
L 530.112676 234.72 
L 531.684507 199.44 
L 533.256338 189.36 
L 534.828169 194.4 
L 536.4 194.4 
L 537.971831 219.6 
L 541.115493 189.36 
L 542.687324 204.48 
L 544.259155 214.56 
L 545.830986 204.48 
L 547.402817 204.48 
L 548.974648 219.6 
L 550.546479 204.48 
L 552.11831 224.64 
L 553.690141 224.64 
L 555.261972 239.76 
L 556.833803 234.72 
L 558.405634 234.72 
L 559.977465 224.64 
L 561.549296 239.76 
L 563.121127 219.6 
L 564.692958 224.64 
L 566.264789 239.76 
L 567.83662 224.64 
L 569.408451 234.72 
L 570.980282 239.76 
L 572.552113 239.76 
L 574.123944 244.8 
L 575.695775 244.8 
L 577.267606 204.48 
L 578.839437 234.72 
L 580.411268 244.8 
L 581.983099 244.8 
L 585.126761 264.96 
L 589.842254 264.96 
L 591.414085 254.88 
L 592.985915 239.76 
L 594.557746 204.48 
L 596.129577 224.64 
L 597.701408 249.84 
L 599.273239 224.64 
L 600.84507 244.8 
L 602.416901 244.8 
L 603.988732 239.76 
L 605.560563 264.96 
L 608.704225 285.12 
L 610.276056 305.28 
L 611.847887 285.12 
L 613.419718 275.04 
L 614.991549 280.08 
L 616.56338 244.8 
L 618.135211 275.04 
L 619.707042 285.12 
L 622.850704 244.8 
L 624.422535 204.48 
L 625.994366 204.48 
L 627.566197 229.68 
L 629.138028 244.8 
L 630.709859 234.72 
L 632.28169 244.8 
L 633.853521 234.72 
L 635.425352 209.52 
L 636.997183 204.48 
L 638.569014 244.8 
L 640.140845 254.88 
L 641.712676 229.68 
L 643.284507 224.64 
L 644.856338 224.64 
L 646.428169 244.8 
L 648 234.72 
L 648 234.72 
" style="fill:none;opacity:0.5;stroke:#0000ff;stroke-linecap:square;"/>
   </g>
   <g id="patch_3">
    <path d="M 90 345.6 
L 648 345.6 
" style="fill:none;stroke:#000000;stroke-linecap:square;stroke-linejoin:miter;"/>
   </g>
   <g id="patch_4">
    <path d="M 90 345.6 
L 90 43.2 
" style="fill:none;stroke:#000000;stroke-linecap:square;stroke-linejoin:miter;"/>
   </g>
   <g id="patch_5">
    <path d="M 90 43.2 
L 648 43.2 
" style="fill:none;stroke:#000000;stroke-linecap:square;stroke-linejoin:miter;"/>
   </g>
   <g id="patch_6">
    <path d="M 648 345.6 
L 648 43.2 
" style="fill:none;stroke:#000000;stroke-linecap:square;stroke-linejoin:miter;"/>
   </g>
   <g id="matplotlib.axis_1">
    <g id="xtick_1">
     <g id="line2d_3">
      <defs>
       <path d="M 0 0 
L 0 -4 
" id="m5c60069456" style="stroke:#000000;stroke-width:0.5;"/>
      </defs>
      <g>
       <use style="stroke:#000000;stroke-width:0.5;" x="90.0" xlink:href="#m5c60069456" y="345.6"/>
      </g>
     </g>
     <g id="line2d_4">
      <defs>
       <path d="M 0 0 
L 0 4 
" id="mc1dd149986" style="stroke:#000000;stroke-width:0.5;"/>
      </defs>
      <g>
       <use style="stroke:#000000;stroke-width:0.5;" x="90.0" xlink:href="#mc1dd149986" y="43.2"/>
      </g>
     </g>
     <g id="text_1">
      <!-- 1月 2014 -->
      <defs>
       <path d="M 37.796875 64.3125 
L 12.890625 25.390625 
L 37.796875 25.390625 
z
M 35.203125 72.90625 
L 47.609375 72.90625 
L 47.609375 25.390625 
L 58.015625 25.390625 
L 58.015625 17.1875 
L 47.609375 17.1875 
L 47.609375 0 
L 37.796875 0 
L 37.796875 17.1875 
L 4.890625 17.1875 
L 4.890625 26.703125 
z
" id="BitstreamVeraSans-Roman-34"/>
       <path d="M 19.09375 12.40625 
L 29 12.40625 
L 29 0 
L 19.09375 0 
z
M 28.71875 19.578125 
L 19.390625 19.578125 
L 19.390625 27.09375 
Q 19.390625 32.03125 20.75 35.203125 
Q 22.125 38.375 26.515625 42.578125 
L 30.90625 46.921875 
Q 33.6875 49.515625 34.9375 51.8125 
Q 36.1875 54.109375 36.1875 56.5 
Q 36.1875 60.84375 32.984375 63.53125 
Q 29.78125 66.21875 24.515625 66.21875 
Q 20.65625 66.21875 16.28125 64.5 
Q 11.921875 62.796875 7.171875 59.515625 
L 7.171875 68.703125 
Q 11.765625 71.484375 16.46875 72.84375 
Q 21.1875 74.21875 26.21875 74.21875 
Q 35.203125 74.21875 40.640625 69.484375 
Q 46.09375 64.75 46.09375 56.984375 
Q 46.09375 53.265625 44.328125 49.921875 
Q 42.578125 46.578125 38.1875 42.390625 
L 33.890625 38.1875 
Q 31.59375 35.890625 30.640625 34.59375 
Q 29.6875 33.296875 29.296875 32.078125 
Q 29 31.0625 28.859375 29.59375 
Q 28.71875 28.125 28.71875 25.59375 
z
" id="BitstreamVeraSans-Roman-3f"/>
       <path d="M 19.1875 8.296875 
L 53.609375 8.296875 
L 53.609375 0 
L 7.328125 0 
L 7.328125 8.296875 
Q 12.9375 14.109375 22.625 23.890625 
Q 32.328125 33.6875 34.8125 36.53125 
Q 39.546875 41.84375 41.421875 45.53125 
Q 43.3125 49.21875 43.3125 52.78125 
Q 43.3125 58.59375 39.234375 62.25 
Q 35.15625 65.921875 28.609375 65.921875 
Q 23.96875 65.921875 18.8125 64.3125 
Q 13.671875 62.703125 7.8125 59.421875 
L 7.8125 69.390625 
Q 13.765625 71.78125 18.9375 73 
Q 24.125 74.21875 28.421875 74.21875 
Q 39.75 74.21875 46.484375 68.546875 
Q 53.21875 62.890625 53.21875 53.421875 
Q 53.21875 48.921875 51.53125 44.890625 
Q 49.859375 40.875 45.40625 35.40625 
Q 44.1875 33.984375 37.640625 27.21875 
Q 31.109375 20.453125 19.1875 8.296875 
" id="BitstreamVeraSans-Roman-32"/>
       <path d="M 12.40625 8.296875 
L 28.515625 8.296875 
L 28.515625 63.921875 
L 10.984375 60.40625 
L 10.984375 69.390625 
L 28.421875 72.90625 
L 38.28125 72.90625 
L 38.28125 8.296875 
L 54.390625 8.296875 
L 54.390625 0 
L 12.40625 0 
z
" id="BitstreamVeraSans-Roman-31"/>
       <path id="BitstreamVeraSans-Roman-20"/>
       <path d="M 31.78125 66.40625 
Q 24.171875 66.40625 20.328125 58.90625 
Q 16.5 51.421875 16.5 36.375 
Q 16.5 21.390625 20.328125 13.890625 
Q 24.171875 6.390625 31.78125 6.390625 
Q 39.453125 6.390625 43.28125 13.890625 
Q 47.125 21.390625 47.125 36.375 
Q 47.125 51.421875 43.28125 58.90625 
Q 39.453125 66.40625 31.78125 66.40625 
M 31.78125 74.21875 
Q 44.046875 74.21875 50.515625 64.515625 
Q 56.984375 54.828125 56.984375 36.375 
Q 56.984375 17.96875 50.515625 8.265625 
Q 44.046875 -1.421875 31.78125 -1.421875 
Q 19.53125 -1.421875 13.0625 8.265625 
Q 6.59375 17.96875 6.59375 36.375 
Q 6.59375 54.828125 13.0625 64.515625 
Q 19.53125 74.21875 31.78125 74.21875 
" id="BitstreamVeraSans-Roman-30"/>
      </defs>
      <g transform="translate(31.5358088293 392.922453847)rotate(-30.0)scale(0.16 -0.16)">
       <use xlink:href="#BitstreamVeraSans-Roman-31"/>
       <use x="63.623046875" xlink:href="#BitstreamVeraSans-Roman-3f"/>
       <use x="116.69921875" xlink:href="#BitstreamVeraSans-Roman-20"/>
       <use x="148.486328125" xlink:href="#BitstreamVeraSans-Roman-32"/>
       <use x="212.109375" xlink:href="#BitstreamVeraSans-Roman-30"/>
       <use x="275.732421875" xlink:href="#BitstreamVeraSans-Roman-31"/>
       <use x="339.35546875" xlink:href="#BitstreamVeraSans-Roman-34"/>
      </g>
     </g>
    </g>
    <g id="xtick_2">
     <g id="line2d_5">
      <g>
       <use style="stroke:#000000;stroke-width:0.5;" x="138.726760563" xlink:href="#m5c60069456" y="345.6"/>
      </g>
     </g>
     <g id="line2d_6">
      <g>
       <use style="stroke:#000000;stroke-width:0.5;" x="138.726760563" xlink:href="#mc1dd149986" y="43.2"/>
      </g>
     </g>
     <g id="text_2">
      <!-- 2月 2014 -->
      <g transform="translate(80.2625693927 392.922453847)rotate(-30.0)scale(0.16 -0.16)">
       <use xlink:href="#BitstreamVeraSans-Roman-32"/>
       <use x="63.623046875" xlink:href="#BitstreamVeraSans-Roman-3f"/>
       <use x="116.69921875" xlink:href="#BitstreamVeraSans-Roman-20"/>
       <use x="148.486328125" xlink:href="#BitstreamVeraSans-Roman-32"/>
       <use x="212.109375" xlink:href="#BitstreamVeraSans-Roman-30"/>
       <use x="275.732421875" xlink:href="#BitstreamVeraSans-Roman-31"/>
       <use x="339.35546875" xlink:href="#BitstreamVeraSans-Roman-34"/>
      </g>
     </g>
    </g>
    <g id="xtick_3">
     <g id="line2d_7">
      <g>
       <use style="stroke:#000000;stroke-width:0.5;" x="182.738028169" xlink:href="#m5c60069456" y="345.6"/>
      </g>
     </g>
     <g id="line2d_8">
      <g>
       <use style="stroke:#000000;stroke-width:0.5;" x="182.738028169" xlink:href="#mc1dd149986" y="43.2"/>
      </g>
     </g>
     <g id="text_3">
      <!-- 3月 2014 -->
      <defs>
       <path d="M 40.578125 39.3125 
Q 47.65625 37.796875 51.625 33 
Q 55.609375 28.21875 55.609375 21.1875 
Q 55.609375 10.40625 48.1875 4.484375 
Q 40.765625 -1.421875 27.09375 -1.421875 
Q 22.515625 -1.421875 17.65625 -0.515625 
Q 12.796875 0.390625 7.625 2.203125 
L 7.625 11.71875 
Q 11.71875 9.328125 16.59375 8.109375 
Q 21.484375 6.890625 26.8125 6.890625 
Q 36.078125 6.890625 40.9375 10.546875 
Q 45.796875 14.203125 45.796875 21.1875 
Q 45.796875 27.640625 41.28125 31.265625 
Q 36.765625 34.90625 28.71875 34.90625 
L 20.21875 34.90625 
L 20.21875 43.015625 
L 29.109375 43.015625 
Q 36.375 43.015625 40.234375 45.921875 
Q 44.09375 48.828125 44.09375 54.296875 
Q 44.09375 59.90625 40.109375 62.90625 
Q 36.140625 65.921875 28.71875 65.921875 
Q 24.65625 65.921875 20.015625 65.03125 
Q 15.375 64.15625 9.8125 62.3125 
L 9.8125 71.09375 
Q 15.4375 72.65625 20.34375 73.4375 
Q 25.25 74.21875 29.59375 74.21875 
Q 40.828125 74.21875 47.359375 69.109375 
Q 53.90625 64.015625 53.90625 55.328125 
Q 53.90625 49.265625 50.4375 45.09375 
Q 46.96875 40.921875 40.578125 39.3125 
" id="BitstreamVeraSans-Roman-33"/>
      </defs>
      <g transform="translate(124.273836998 392.922453847)rotate(-30.0)scale(0.16 -0.16)">
       <use xlink:href="#BitstreamVeraSans-Roman-33"/>
       <use x="63.623046875" xlink:href="#BitstreamVeraSans-Roman-3f"/>
       <use x="116.69921875" xlink:href="#BitstreamVeraSans-Roman-20"/>
       <use x="148.486328125" xlink:href="#BitstreamVeraSans-Roman-32"/>
       <use x="212.109375" xlink:href="#BitstreamVeraSans-Roman-30"/>
       <use x="275.732421875" xlink:href="#BitstreamVeraSans-Roman-31"/>
       <use x="339.35546875" xlink:href="#BitstreamVeraSans-Roman-34"/>
      </g>
     </g>
    </g>
    <g id="xtick_4">
     <g id="line2d_9">
      <g>
       <use style="stroke:#000000;stroke-width:0.5;" x="231.464788733" xlink:href="#m5c60069456" y="345.6"/>
      </g>
     </g>
     <g id="line2d_10">
      <g>
       <use style="stroke:#000000;stroke-width:0.5;" x="231.464788733" xlink:href="#mc1dd149986" y="43.2"/>
      </g>
     </g>
     <g id="text_4">
      <!-- 4月 2014 -->
      <g transform="translate(173.000597562 392.922453847)rotate(-30.0)scale(0.16 -0.16)">
       <use xlink:href="#BitstreamVeraSans-Roman-34"/>
       <use x="63.623046875" xlink:href="#BitstreamVeraSans-Roman-3f"/>
       <use x="116.69921875" xlink:href="#BitstreamVeraSans-Roman-20"/>
       <use x="148.486328125" xlink:href="#BitstreamVeraSans-Roman-32"/>
       <use x="212.109375" xlink:href="#BitstreamVeraSans-Roman-30"/>
       <use x="275.732421875" xlink:href="#BitstreamVeraSans-Roman-31"/>
       <use x="339.35546875" xlink:href="#BitstreamVeraSans-Roman-34"/>
      </g>
     </g>
    </g>
    <g id="xtick_5">
     <g id="line2d_11">
      <g>
       <use style="stroke:#000000;stroke-width:0.5;" x="278.61971831" xlink:href="#m5c60069456" y="345.6"/>
      </g>
     </g>
     <g id="line2d_12">
      <g>
       <use style="stroke:#000000;stroke-width:0.5;" x="278.61971831" xlink:href="#mc1dd149986" y="43.2"/>
      </g>
     </g>
     <g id="text_5">
      <!-- 5月 2014 -->
      <defs>
       <path d="M 10.796875 72.90625 
L 49.515625 72.90625 
L 49.515625 64.59375 
L 19.828125 64.59375 
L 19.828125 46.734375 
Q 21.96875 47.46875 24.109375 47.828125 
Q 26.265625 48.1875 28.421875 48.1875 
Q 40.625 48.1875 47.75 41.5 
Q 54.890625 34.8125 54.890625 23.390625 
Q 54.890625 11.625 47.5625 5.09375 
Q 40.234375 -1.421875 26.90625 -1.421875 
Q 22.3125 -1.421875 17.546875 -0.640625 
Q 12.796875 0.140625 7.71875 1.703125 
L 7.71875 11.625 
Q 12.109375 9.234375 16.796875 8.0625 
Q 21.484375 6.890625 26.703125 6.890625 
Q 35.15625 6.890625 40.078125 11.328125 
Q 45.015625 15.765625 45.015625 23.390625 
Q 45.015625 31 40.078125 35.4375 
Q 35.15625 39.890625 26.703125 39.890625 
Q 22.75 39.890625 18.8125 39.015625 
Q 14.890625 38.140625 10.796875 36.28125 
z
" id="BitstreamVeraSans-Roman-35"/>
      </defs>
      <g transform="translate(220.155527139 392.922453847)rotate(-30.0)scale(0.16 -0.16)">
       <use xlink:href="#BitstreamVeraSans-Roman-35"/>
       <use x="63.623046875" xlink:href="#BitstreamVeraSans-Roman-3f"/>
       <use x="116.69921875" xlink:href="#BitstreamVeraSans-Roman-20"/>
       <use x="148.486328125" xlink:href="#BitstreamVeraSans-Roman-32"/>
       <use x="212.109375" xlink:href="#BitstreamVeraSans-Roman-30"/>
       <use x="275.732421875" xlink:href="#BitstreamVeraSans-Roman-31"/>
       <use x="339.35546875" xlink:href="#BitstreamVeraSans-Roman-34"/>
      </g>
     </g>
    </g>
    <g id="xtick_6">
     <g id="line2d_13">
      <g>
       <use style="stroke:#000000;stroke-width:0.5;" x="327.346478873" xlink:href="#m5c60069456" y="345.6"/>
      </g>
     </g>
     <g id="line2d_14">
      <g>
       <use style="stroke:#000000;stroke-width:0.5;" x="327.346478873" xlink:href="#mc1dd149986" y="43.2"/>
      </g>
     </g>
     <g id="text_6">
      <!-- 6月 2014 -->
      <defs>
       <path d="M 33.015625 40.375 
Q 26.375 40.375 22.484375 35.828125 
Q 18.609375 31.296875 18.609375 23.390625 
Q 18.609375 15.53125 22.484375 10.953125 
Q 26.375 6.390625 33.015625 6.390625 
Q 39.65625 6.390625 43.53125 10.953125 
Q 47.40625 15.53125 47.40625 23.390625 
Q 47.40625 31.296875 43.53125 35.828125 
Q 39.65625 40.375 33.015625 40.375 
M 52.59375 71.296875 
L 52.59375 62.3125 
Q 48.875 64.0625 45.09375 64.984375 
Q 41.3125 65.921875 37.59375 65.921875 
Q 27.828125 65.921875 22.671875 59.328125 
Q 17.53125 52.734375 16.796875 39.40625 
Q 19.671875 43.65625 24.015625 45.921875 
Q 28.375 48.1875 33.59375 48.1875 
Q 44.578125 48.1875 50.953125 41.515625 
Q 57.328125 34.859375 57.328125 23.390625 
Q 57.328125 12.15625 50.6875 5.359375 
Q 44.046875 -1.421875 33.015625 -1.421875 
Q 20.359375 -1.421875 13.671875 8.265625 
Q 6.984375 17.96875 6.984375 36.375 
Q 6.984375 53.65625 15.1875 63.9375 
Q 23.390625 74.21875 37.203125 74.21875 
Q 40.921875 74.21875 44.703125 73.484375 
Q 48.484375 72.75 52.59375 71.296875 
" id="BitstreamVeraSans-Roman-36"/>
      </defs>
      <g transform="translate(268.882287703 392.922453847)rotate(-30.0)scale(0.16 -0.16)">
       <use xlink:href="#BitstreamVeraSans-Roman-36"/>
       <use x="63.623046875" xlink:href="#BitstreamVeraSans-Roman-3f"/>
       <use x="116.69921875" xlink:href="#BitstreamVeraSans-Roman-20"/>
       <use x="148.486328125" xlink:href="#BitstreamVeraSans-Roman-32"/>
       <use x="212.109375" xlink:href="#BitstreamVeraSans-Roman-30"/>
       <use x="275.732421875" xlink:href="#BitstreamVeraSans-Roman-31"/>
       <use x="339.35546875" xlink:href="#BitstreamVeraSans-Roman-34"/>
      </g>
     </g>
    </g>
    <g id="xtick_7">
     <g id="line2d_15">
      <g>
       <use style="stroke:#000000;stroke-width:0.5;" x="374.501408451" xlink:href="#m5c60069456" y="345.6"/>
      </g>
     </g>
     <g id="line2d_16">
      <g>
       <use style="stroke:#000000;stroke-width:0.5;" x="374.501408451" xlink:href="#mc1dd149986" y="43.2"/>
      </g>
     </g>
     <g id="text_7">
      <!-- 7月 2014 -->
      <defs>
       <path d="M 8.203125 72.90625 
L 55.078125 72.90625 
L 55.078125 68.703125 
L 28.609375 0 
L 18.3125 0 
L 43.21875 64.59375 
L 8.203125 64.59375 
z
" id="BitstreamVeraSans-Roman-37"/>
      </defs>
      <g transform="translate(316.03721728 392.922453847)rotate(-30.0)scale(0.16 -0.16)">
       <use xlink:href="#BitstreamVeraSans-Roman-37"/>
       <use x="63.623046875" xlink:href="#BitstreamVeraSans-Roman-3f"/>
       <use x="116.69921875" xlink:href="#BitstreamVeraSans-Roman-20"/>
       <use x="148.486328125" xlink:href="#BitstreamVeraSans-Roman-32"/>
       <use x="212.109375" xlink:href="#BitstreamVeraSans-Roman-30"/>
       <use x="275.732421875" xlink:href="#BitstreamVeraSans-Roman-31"/>
       <use x="339.35546875" xlink:href="#BitstreamVeraSans-Roman-34"/>
      </g>
     </g>
    </g>
    <g id="xtick_8">
     <g id="line2d_17">
      <g>
       <use style="stroke:#000000;stroke-width:0.5;" x="423.228169014" xlink:href="#m5c60069456" y="345.6"/>
      </g>
     </g>
     <g id="line2d_18">
      <g>
       <use style="stroke:#000000;stroke-width:0.5;" x="423.228169014" xlink:href="#mc1dd149986" y="43.2"/>
      </g>
     </g>
     <g id="text_8">
      <!-- 8月 2014 -->
      <defs>
       <path d="M 31.78125 34.625 
Q 24.75 34.625 20.71875 30.859375 
Q 16.703125 27.09375 16.703125 20.515625 
Q 16.703125 13.921875 20.71875 10.15625 
Q 24.75 6.390625 31.78125 6.390625 
Q 38.8125 6.390625 42.859375 10.171875 
Q 46.921875 13.96875 46.921875 20.515625 
Q 46.921875 27.09375 42.890625 30.859375 
Q 38.875 34.625 31.78125 34.625 
M 21.921875 38.8125 
Q 15.578125 40.375 12.03125 44.71875 
Q 8.5 49.078125 8.5 55.328125 
Q 8.5 64.0625 14.71875 69.140625 
Q 20.953125 74.21875 31.78125 74.21875 
Q 42.671875 74.21875 48.875 69.140625 
Q 55.078125 64.0625 55.078125 55.328125 
Q 55.078125 49.078125 51.53125 44.71875 
Q 48 40.375 41.703125 38.8125 
Q 48.828125 37.15625 52.796875 32.3125 
Q 56.78125 27.484375 56.78125 20.515625 
Q 56.78125 9.90625 50.3125 4.234375 
Q 43.84375 -1.421875 31.78125 -1.421875 
Q 19.734375 -1.421875 13.25 4.234375 
Q 6.78125 9.90625 6.78125 20.515625 
Q 6.78125 27.484375 10.78125 32.3125 
Q 14.796875 37.15625 21.921875 38.8125 
M 18.3125 54.390625 
Q 18.3125 48.734375 21.84375 45.5625 
Q 25.390625 42.390625 31.78125 42.390625 
Q 38.140625 42.390625 41.71875 45.5625 
Q 45.3125 48.734375 45.3125 54.390625 
Q 45.3125 60.0625 41.71875 63.234375 
Q 38.140625 66.40625 31.78125 66.40625 
Q 25.390625 66.40625 21.84375 63.234375 
Q 18.3125 60.0625 18.3125 54.390625 
" id="BitstreamVeraSans-Roman-38"/>
      </defs>
      <g transform="translate(364.763977843 392.922453847)rotate(-30.0)scale(0.16 -0.16)">
       <use xlink:href="#BitstreamVeraSans-Roman-38"/>
       <use x="63.623046875" xlink:href="#BitstreamVeraSans-Roman-3f"/>
       <use x="116.69921875" xlink:href="#BitstreamVeraSans-Roman-20"/>
       <use x="148.486328125" xlink:href="#BitstreamVeraSans-Roman-32"/>
       <use x="212.109375" xlink:href="#BitstreamVeraSans-Roman-30"/>
       <use x="275.732421875" xlink:href="#BitstreamVeraSans-Roman-31"/>
       <use x="339.35546875" xlink:href="#BitstreamVeraSans-Roman-34"/>
      </g>
     </g>
    </g>
    <g id="xtick_9">
     <g id="line2d_19">
      <g>
       <use style="stroke:#000000;stroke-width:0.5;" x="471.954929578" xlink:href="#m5c60069456" y="345.6"/>
      </g>
     </g>
     <g id="line2d_20">
      <g>
       <use style="stroke:#000000;stroke-width:0.5;" x="471.954929578" xlink:href="#mc1dd149986" y="43.2"/>
      </g>
     </g>
     <g id="text_9">
      <!-- 9月 2014 -->
      <defs>
       <path d="M 10.984375 1.515625 
L 10.984375 10.5 
Q 14.703125 8.734375 18.5 7.8125 
Q 22.3125 6.890625 25.984375 6.890625 
Q 35.75 6.890625 40.890625 13.453125 
Q 46.046875 20.015625 46.78125 33.40625 
Q 43.953125 29.203125 39.59375 26.953125 
Q 35.25 24.703125 29.984375 24.703125 
Q 19.046875 24.703125 12.671875 31.3125 
Q 6.296875 37.9375 6.296875 49.421875 
Q 6.296875 60.640625 12.9375 67.421875 
Q 19.578125 74.21875 30.609375 74.21875 
Q 43.265625 74.21875 49.921875 64.515625 
Q 56.59375 54.828125 56.59375 36.375 
Q 56.59375 19.140625 48.40625 8.859375 
Q 40.234375 -1.421875 26.421875 -1.421875 
Q 22.703125 -1.421875 18.890625 -0.6875 
Q 15.09375 0.046875 10.984375 1.515625 
M 30.609375 32.421875 
Q 37.25 32.421875 41.125 36.953125 
Q 45.015625 41.5 45.015625 49.421875 
Q 45.015625 57.28125 41.125 61.84375 
Q 37.25 66.40625 30.609375 66.40625 
Q 23.96875 66.40625 20.09375 61.84375 
Q 16.21875 57.28125 16.21875 49.421875 
Q 16.21875 41.5 20.09375 36.953125 
Q 23.96875 32.421875 30.609375 32.421875 
" id="BitstreamVeraSans-Roman-39"/>
      </defs>
      <g transform="translate(413.490738407 392.922453847)rotate(-30.0)scale(0.16 -0.16)">
       <use xlink:href="#BitstreamVeraSans-Roman-39"/>
       <use x="63.623046875" xlink:href="#BitstreamVeraSans-Roman-3f"/>
       <use x="116.69921875" xlink:href="#BitstreamVeraSans-Roman-20"/>
       <use x="148.486328125" xlink:href="#BitstreamVeraSans-Roman-32"/>
       <use x="212.109375" xlink:href="#BitstreamVeraSans-Roman-30"/>
       <use x="275.732421875" xlink:href="#BitstreamVeraSans-Roman-31"/>
       <use x="339.35546875" xlink:href="#BitstreamVeraSans-Roman-34"/>
      </g>
     </g>
    </g>
    <g id="xtick_10">
     <g id="line2d_21">
      <g>
       <use style="stroke:#000000;stroke-width:0.5;" x="519.109859155" xlink:href="#m5c60069456" y="345.6"/>
      </g>
     </g>
     <g id="line2d_22">
      <g>
       <use style="stroke:#000000;stroke-width:0.5;" x="519.109859155" xlink:href="#mc1dd149986" y="43.2"/>
      </g>
     </g>
     <g id="text_10">
      <!-- 10月 2014 -->
      <g transform="translate(451.829529374 398.012453847)rotate(-30.0)scale(0.16 -0.16)">
       <use xlink:href="#BitstreamVeraSans-Roman-31"/>
       <use x="63.623046875" xlink:href="#BitstreamVeraSans-Roman-30"/>
       <use x="127.24609375" xlink:href="#BitstreamVeraSans-Roman-3f"/>
       <use x="180.322265625" xlink:href="#BitstreamVeraSans-Roman-20"/>
       <use x="212.109375" xlink:href="#BitstreamVeraSans-Roman-32"/>
       <use x="275.732421875" xlink:href="#BitstreamVeraSans-Roman-30"/>
       <use x="339.35546875" xlink:href="#BitstreamVeraSans-Roman-31"/>
       <use x="402.978515625" xlink:href="#BitstreamVeraSans-Roman-34"/>
      </g>
     </g>
    </g>
    <g id="xtick_11">
     <g id="line2d_23">
      <g>
       <use style="stroke:#000000;stroke-width:0.5;" x="567.836619718" xlink:href="#m5c60069456" y="345.6"/>
      </g>
     </g>
     <g id="line2d_24">
      <g>
       <use style="stroke:#000000;stroke-width:0.5;" x="567.836619718" xlink:href="#mc1dd149986" y="43.2"/>
      </g>
     </g>
     <g id="text_11">
      <!-- 11月 2014 -->
      <g transform="translate(500.556289937 398.012453847)rotate(-30.0)scale(0.16 -0.16)">
       <use xlink:href="#BitstreamVeraSans-Roman-31"/>
       <use x="63.623046875" xlink:href="#BitstreamVeraSans-Roman-31"/>
       <use x="127.24609375" xlink:href="#BitstreamVeraSans-Roman-3f"/>
       <use x="180.322265625" xlink:href="#BitstreamVeraSans-Roman-20"/>
       <use x="212.109375" xlink:href="#BitstreamVeraSans-Roman-32"/>
       <use x="275.732421875" xlink:href="#BitstreamVeraSans-Roman-30"/>
       <use x="339.35546875" xlink:href="#BitstreamVeraSans-Roman-31"/>
       <use x="402.978515625" xlink:href="#BitstreamVeraSans-Roman-34"/>
      </g>
     </g>
    </g>
    <g id="xtick_12">
     <g id="line2d_25">
      <g>
       <use style="stroke:#000000;stroke-width:0.5;" x="614.991549296" xlink:href="#m5c60069456" y="345.6"/>
      </g>
     </g>
     <g id="line2d_26">
      <g>
       <use style="stroke:#000000;stroke-width:0.5;" x="614.991549296" xlink:href="#mc1dd149986" y="43.2"/>
      </g>
     </g>
     <g id="text_12">
      <!-- 12月 2014 -->
      <g transform="translate(547.711219515 398.012453847)rotate(-30.0)scale(0.16 -0.16)">
       <use xlink:href="#BitstreamVeraSans-Roman-31"/>
       <use x="63.623046875" xlink:href="#BitstreamVeraSans-Roman-32"/>
       <use x="127.24609375" xlink:href="#BitstreamVeraSans-Roman-3f"/>
       <use x="180.322265625" xlink:href="#BitstreamVeraSans-Roman-20"/>
       <use x="212.109375" xlink:href="#BitstreamVeraSans-Roman-32"/>
       <use x="275.732421875" xlink:href="#BitstreamVeraSans-Roman-30"/>
       <use x="339.35546875" xlink:href="#BitstreamVeraSans-Roman-31"/>
       <use x="402.978515625" xlink:href="#BitstreamVeraSans-Roman-34"/>
      </g>
     </g>
    </g>
    <g id="text_13">
     <!-- AKDT -->
     <defs>
      <path d="M 9.8125 72.90625 
L 19.671875 72.90625 
L 19.671875 42.09375 
L 52.390625 72.90625 
L 65.09375 72.90625 
L 28.90625 38.921875 
L 67.671875 0 
L 54.6875 0 
L 19.671875 35.109375 
L 19.671875 0 
L 9.8125 0 
z
" id="BitstreamVeraSans-Roman-4b"/>
      <path d="M 34.1875 63.1875 
L 20.796875 26.90625 
L 47.609375 26.90625 
z
M 28.609375 72.90625 
L 39.796875 72.90625 
L 67.578125 0 
L 57.328125 0 
L 50.6875 18.703125 
L 17.828125 18.703125 
L 11.1875 0 
L 0.78125 0 
z
" id="BitstreamVeraSans-Roman-41"/>
      <path d="M 19.671875 64.796875 
L 19.671875 8.109375 
L 31.59375 8.109375 
Q 46.6875 8.109375 53.6875 14.9375 
Q 60.6875 21.78125 60.6875 36.53125 
Q 60.6875 51.171875 53.6875 57.984375 
Q 46.6875 64.796875 31.59375 64.796875 
z
M 9.8125 72.90625 
L 30.078125 72.90625 
Q 51.265625 72.90625 61.171875 64.09375 
Q 71.09375 55.28125 71.09375 36.53125 
Q 71.09375 17.671875 61.125 8.828125 
Q 51.171875 0 30.078125 0 
L 9.8125 0 
z
" id="BitstreamVeraSans-Roman-44"/>
      <path d="M -0.296875 72.90625 
L 61.375 72.90625 
L 61.375 64.59375 
L 35.5 64.59375 
L 35.5 0 
L 25.59375 0 
L 25.59375 64.59375 
L -0.296875 64.59375 
z
" id="BitstreamVeraSans-Roman-54"/>
     </defs>
     <g transform="translate(347.235 418.051653378)scale(0.16 -0.16)">
      <use xlink:href="#BitstreamVeraSans-Roman-41"/>
      <use x="68.408203125" xlink:href="#BitstreamVeraSans-Roman-4b"/>
      <use x="133.984375" xlink:href="#BitstreamVeraSans-Roman-44"/>
      <use x="210.986328125" xlink:href="#BitstreamVeraSans-Roman-54"/>
     </g>
    </g>
   </g>
   <g id="matplotlib.axis_2">
    <g id="ytick_1">
     <g id="line2d_27">
      <defs>
       <path d="M 0 0 
L 4 0 
" id="m7264f6e01c" style="stroke:#000000;stroke-width:0.5;"/>
      </defs>
      <g>
       <use style="stroke:#000000;stroke-width:0.5;" x="90.0" xlink:href="#m7264f6e01c" y="345.6"/>
      </g>
     </g>
     <g id="line2d_28">
      <defs>
       <path d="M 0 0 
L -4 0 
" id="m06f572b561" style="stroke:#000000;stroke-width:0.5;"/>
      </defs>
      <g>
       <use style="stroke:#000000;stroke-width:0.5;" x="648.0" xlink:href="#m06f572b561" y="345.6"/>
      </g>
     </g>
     <g id="text_14">
      <!-- 20 -->
      <g transform="translate(65.64 350.015)scale(0.16 -0.16)">
       <use xlink:href="#BitstreamVeraSans-Roman-32"/>
       <use x="63.623046875" xlink:href="#BitstreamVeraSans-Roman-30"/>
      </g>
     </g>
    </g>
    <g id="ytick_2">
     <g id="line2d_29">
      <g>
       <use style="stroke:#000000;stroke-width:0.5;" x="90.0" xlink:href="#m7264f6e01c" y="295.2"/>
      </g>
     </g>
     <g id="line2d_30">
      <g>
       <use style="stroke:#000000;stroke-width:0.5;" x="648.0" xlink:href="#m06f572b561" y="295.2"/>
      </g>
     </g>
     <g id="text_15">
      <!-- 30 -->
      <g transform="translate(65.64 299.615)scale(0.16 -0.16)">
       <use xlink:href="#BitstreamVeraSans-Roman-33"/>
       <use x="63.623046875" xlink:href="#BitstreamVeraSans-Roman-30"/>
      </g>
     </g>
    </g>
    <g id="ytick_3">
     <g id="line2d_31">
      <g>
       <use style="stroke:#000000;stroke-width:0.5;" x="90.0" xlink:href="#m7264f6e01c" y="244.8"/>
      </g>
     </g>
     <g id="line2d_32">
      <g>
       <use style="stroke:#000000;stroke-width:0.5;" x="648.0" xlink:href="#m06f572b561" y="244.8"/>
      </g>
     </g>
     <g id="text_16">
      <!-- 40 -->
      <g transform="translate(65.64 249.215)scale(0.16 -0.16)">
       <use xlink:href="#BitstreamVeraSans-Roman-34"/>
       <use x="63.623046875" xlink:href="#BitstreamVeraSans-Roman-30"/>
      </g>
     </g>
    </g>
    <g id="ytick_4">
     <g id="line2d_33">
      <g>
       <use style="stroke:#000000;stroke-width:0.5;" x="90.0" xlink:href="#m7264f6e01c" y="194.4"/>
      </g>
     </g>
     <g id="line2d_34">
      <g>
       <use style="stroke:#000000;stroke-width:0.5;" x="648.0" xlink:href="#m06f572b561" y="194.4"/>
      </g>
     </g>
     <g id="text_17">
      <!-- 50 -->
      <g transform="translate(65.64 198.815)scale(0.16 -0.16)">
       <use xlink:href="#BitstreamVeraSans-Roman-35"/>
       <use x="63.623046875" xlink:href="#BitstreamVeraSans-Roman-30"/>
      </g>
     </g>
    </g>
    <g id="ytick_5">
     <g id="line2d_35">
      <g>
       <use style="stroke:#000000;stroke-width:0.5;" x="90.0" xlink:href="#m7264f6e01c" y="144.0"/>
      </g>
     </g>
     <g id="line2d_36">
      <g>
       <use style="stroke:#000000;stroke-width:0.5;" x="648.0" xlink:href="#m06f572b561" y="144.0"/>
      </g>
     </g>
     <g id="text_18">
      <!-- 60 -->
      <g transform="translate(65.64 148.415)scale(0.16 -0.16)">
       <use xlink:href="#BitstreamVeraSans-Roman-36"/>
       <use x="63.623046875" xlink:href="#BitstreamVeraSans-Roman-30"/>
      </g>
     </g>
    </g>
    <g id="ytick_6">
     <g id="line2d_37">
      <g>
       <use style="stroke:#000000;stroke-width:0.5;" x="90.0" xlink:href="#m7264f6e01c" y="93.6"/>
      </g>
     </g>
     <g id="line2d_38">
      <g>
       <use style="stroke:#000000;stroke-width:0.5;" x="648.0" xlink:href="#m06f572b561" y="93.6"/>
      </g>
     </g>
     <g id="text_19">
      <!-- 70 -->
      <g transform="translate(65.64 98.015)scale(0.16 -0.16)">
       <use xlink:href="#BitstreamVeraSans-Roman-37"/>
       <use x="63.623046875" xlink:href="#BitstreamVeraSans-Roman-30"/>
      </g>
     </g>
    </g>
    <g id="ytick_7">
     <g id="line2d_39">
      <g>
       <use style="stroke:#000000;stroke-width:0.5;" x="90.0" xlink:href="#m7264f6e01c" y="43.2"/>
      </g>
     </g>
     <g id="line2d_40">
      <g>
       <use style="stroke:#000000;stroke-width:0.5;" x="648.0" xlink:href="#m06f572b561" y="43.2"/>
      </g>
     </g>
     <g id="text_20">
      <!-- 80 -->
      <g transform="translate(65.64 47.615)scale(0.16 -0.16)">
       <use xlink:href="#BitstreamVeraSans-Roman-38"/>
       <use x="63.623046875" xlink:href="#BitstreamVeraSans-Roman-30"/>
      </g>
     </g>
    </g>
    <g id="text_21">
     <!-- Temperature (F) -->
     <defs>
      <path d="M 18.3125 70.21875 
L 18.3125 54.6875 
L 36.8125 54.6875 
L 36.8125 47.703125 
L 18.3125 47.703125 
L 18.3125 18.015625 
Q 18.3125 11.328125 20.140625 9.421875 
Q 21.96875 7.515625 27.59375 7.515625 
L 36.8125 7.515625 
L 36.8125 0 
L 27.59375 0 
Q 17.1875 0 13.234375 3.875 
Q 9.28125 7.765625 9.28125 18.015625 
L 9.28125 47.703125 
L 2.6875 47.703125 
L 2.6875 54.6875 
L 9.28125 54.6875 
L 9.28125 70.21875 
z
" id="BitstreamVeraSans-Roman-74"/>
      <path d="M 9.8125 72.90625 
L 51.703125 72.90625 
L 51.703125 64.59375 
L 19.671875 64.59375 
L 19.671875 43.109375 
L 48.578125 43.109375 
L 48.578125 34.8125 
L 19.671875 34.8125 
L 19.671875 0 
L 9.8125 0 
z
" id="BitstreamVeraSans-Roman-46"/>
      <path d="M 52 44.1875 
Q 55.375 50.25 60.0625 53.125 
Q 64.75 56 71.09375 56 
Q 79.640625 56 84.28125 50.015625 
Q 88.921875 44.046875 88.921875 33.015625 
L 88.921875 0 
L 79.890625 0 
L 79.890625 32.71875 
Q 79.890625 40.578125 77.09375 44.375 
Q 74.3125 48.1875 68.609375 48.1875 
Q 61.625 48.1875 57.5625 43.546875 
Q 53.515625 38.921875 53.515625 30.90625 
L 53.515625 0 
L 44.484375 0 
L 44.484375 32.71875 
Q 44.484375 40.625 41.703125 44.40625 
Q 38.921875 48.1875 33.109375 48.1875 
Q 26.21875 48.1875 22.15625 43.53125 
Q 18.109375 38.875 18.109375 30.90625 
L 18.109375 0 
L 9.078125 0 
L 9.078125 54.6875 
L 18.109375 54.6875 
L 18.109375 46.1875 
Q 21.1875 51.21875 25.484375 53.609375 
Q 29.78125 56 35.6875 56 
Q 41.65625 56 45.828125 52.96875 
Q 50 49.953125 52 44.1875 
" id="BitstreamVeraSans-Roman-6d"/>
      <path d="M 8.015625 75.875 
L 15.828125 75.875 
Q 23.140625 64.359375 26.78125 53.3125 
Q 30.421875 42.28125 30.421875 31.390625 
Q 30.421875 20.453125 26.78125 9.375 
Q 23.140625 -1.703125 15.828125 -13.1875 
L 8.015625 -13.1875 
Q 14.5 -2 17.703125 9.0625 
Q 20.90625 20.125 20.90625 31.390625 
Q 20.90625 42.671875 17.703125 53.65625 
Q 14.5 64.65625 8.015625 75.875 
" id="BitstreamVeraSans-Roman-29"/>
      <path d="M 56.203125 29.59375 
L 56.203125 25.203125 
L 14.890625 25.203125 
Q 15.484375 15.921875 20.484375 11.0625 
Q 25.484375 6.203125 34.421875 6.203125 
Q 39.59375 6.203125 44.453125 7.46875 
Q 49.3125 8.734375 54.109375 11.28125 
L 54.109375 2.78125 
Q 49.265625 0.734375 44.1875 -0.34375 
Q 39.109375 -1.421875 33.890625 -1.421875 
Q 20.796875 -1.421875 13.15625 6.1875 
Q 5.515625 13.8125 5.515625 26.8125 
Q 5.515625 40.234375 12.765625 48.109375 
Q 20.015625 56 32.328125 56 
Q 43.359375 56 49.78125 48.890625 
Q 56.203125 41.796875 56.203125 29.59375 
M 47.21875 32.234375 
Q 47.125 39.59375 43.09375 43.984375 
Q 39.0625 48.390625 32.421875 48.390625 
Q 24.90625 48.390625 20.390625 44.140625 
Q 15.875 39.890625 15.1875 32.171875 
z
" id="BitstreamVeraSans-Roman-65"/>
      <path d="M 41.109375 46.296875 
Q 39.59375 47.171875 37.8125 47.578125 
Q 36.03125 48 33.890625 48 
Q 26.265625 48 22.1875 43.046875 
Q 18.109375 38.09375 18.109375 28.8125 
L 18.109375 0 
L 9.078125 0 
L 9.078125 54.6875 
L 18.109375 54.6875 
L 18.109375 46.1875 
Q 20.953125 51.171875 25.484375 53.578125 
Q 30.03125 56 36.53125 56 
Q 37.453125 56 38.578125 55.875 
Q 39.703125 55.765625 41.0625 55.515625 
z
" id="BitstreamVeraSans-Roman-72"/>
      <path d="M 31 75.875 
Q 24.46875 64.65625 21.28125 53.65625 
Q 18.109375 42.671875 18.109375 31.390625 
Q 18.109375 20.125 21.3125 9.0625 
Q 24.515625 -2 31 -13.1875 
L 23.1875 -13.1875 
Q 15.875 -1.703125 12.234375 9.375 
Q 8.59375 20.453125 8.59375 31.390625 
Q 8.59375 42.28125 12.203125 53.3125 
Q 15.828125 64.359375 23.1875 75.875 
z
" id="BitstreamVeraSans-Roman-28"/>
      <path d="M 34.28125 27.484375 
Q 23.390625 27.484375 19.1875 25 
Q 14.984375 22.515625 14.984375 16.5 
Q 14.984375 11.71875 18.140625 8.90625 
Q 21.296875 6.109375 26.703125 6.109375 
Q 34.1875 6.109375 38.703125 11.40625 
Q 43.21875 16.703125 43.21875 25.484375 
L 43.21875 27.484375 
z
M 52.203125 31.203125 
L 52.203125 0 
L 43.21875 0 
L 43.21875 8.296875 
Q 40.140625 3.328125 35.546875 0.953125 
Q 30.953125 -1.421875 24.3125 -1.421875 
Q 15.921875 -1.421875 10.953125 3.296875 
Q 6 8.015625 6 15.921875 
Q 6 25.140625 12.171875 29.828125 
Q 18.359375 34.515625 30.609375 34.515625 
L 43.21875 34.515625 
L 43.21875 35.40625 
Q 43.21875 41.609375 39.140625 45 
Q 35.0625 48.390625 27.6875 48.390625 
Q 23 48.390625 18.546875 47.265625 
Q 14.109375 46.140625 10.015625 43.890625 
L 10.015625 52.203125 
Q 14.9375 54.109375 19.578125 55.046875 
Q 24.21875 56 28.609375 56 
Q 40.484375 56 46.34375 49.84375 
Q 52.203125 43.703125 52.203125 31.203125 
" id="BitstreamVeraSans-Roman-61"/>
      <path d="M 18.109375 8.203125 
L 18.109375 -20.796875 
L 9.078125 -20.796875 
L 9.078125 54.6875 
L 18.109375 54.6875 
L 18.109375 46.390625 
Q 20.953125 51.265625 25.265625 53.625 
Q 29.59375 56 35.59375 56 
Q 45.5625 56 51.78125 48.09375 
Q 58.015625 40.1875 58.015625 27.296875 
Q 58.015625 14.40625 51.78125 6.484375 
Q 45.5625 -1.421875 35.59375 -1.421875 
Q 29.59375 -1.421875 25.265625 0.953125 
Q 20.953125 3.328125 18.109375 8.203125 
M 48.6875 27.296875 
Q 48.6875 37.203125 44.609375 42.84375 
Q 40.53125 48.484375 33.40625 48.484375 
Q 26.265625 48.484375 22.1875 42.84375 
Q 18.109375 37.203125 18.109375 27.296875 
Q 18.109375 17.390625 22.1875 11.75 
Q 26.265625 6.109375 33.40625 6.109375 
Q 40.53125 6.109375 44.609375 11.75 
Q 48.6875 17.390625 48.6875 27.296875 
" id="BitstreamVeraSans-Roman-70"/>
      <path d="M 8.5 21.578125 
L 8.5 54.6875 
L 17.484375 54.6875 
L 17.484375 21.921875 
Q 17.484375 14.15625 20.5 10.265625 
Q 23.53125 6.390625 29.59375 6.390625 
Q 36.859375 6.390625 41.078125 11.03125 
Q 45.3125 15.671875 45.3125 23.6875 
L 45.3125 54.6875 
L 54.296875 54.6875 
L 54.296875 0 
L 45.3125 0 
L 45.3125 8.40625 
Q 42.046875 3.421875 37.71875 1 
Q 33.40625 -1.421875 27.6875 -1.421875 
Q 18.265625 -1.421875 13.375 4.4375 
Q 8.5 10.296875 8.5 21.578125 
" id="BitstreamVeraSans-Roman-75"/>
     </defs>
     <g transform="translate(57.3125 259.97375)rotate(-90.0)scale(0.16 -0.16)">
      <use xlink:href="#BitstreamVeraSans-Roman-54"/>
      <use x="60.818359375" xlink:href="#BitstreamVeraSans-Roman-65"/>
      <use x="122.341796875" xlink:href="#BitstreamVeraSans-Roman-6d"/>
      <use x="219.75390625" xlink:href="#BitstreamVeraSans-Roman-70"/>
      <use x="283.23046875" xlink:href="#BitstreamVeraSans-Roman-65"/>
      <use x="344.75390625" xlink:href="#BitstreamVeraSans-Roman-72"/>
      <use x="385.8671875" xlink:href="#BitstreamVeraSans-Roman-61"/>
      <use x="447.146484375" xlink:href="#BitstreamVeraSans-Roman-74"/>
      <use x="486.35546875" xlink:href="#BitstreamVeraSans-Roman-75"/>
      <use x="549.734375" xlink:href="#BitstreamVeraSans-Roman-72"/>
      <use x="590.81640625" xlink:href="#BitstreamVeraSans-Roman-65"/>
      <use x="652.33984375" xlink:href="#BitstreamVeraSans-Roman-20"/>
      <use x="684.126953125" xlink:href="#BitstreamVeraSans-Roman-28"/>
      <use x="723.140625" xlink:href="#BitstreamVeraSans-Roman-46"/>
      <use x="780.66015625" xlink:href="#BitstreamVeraSans-Roman-29"/>
     </g>
    </g>
   </g>
   <g id="text_22">
    <!-- Daily high and low temperatures, 2014 -->
    <defs>
     <path d="M 30.609375 48.390625 
Q 23.390625 48.390625 19.1875 42.75 
Q 14.984375 37.109375 14.984375 27.296875 
Q 14.984375 17.484375 19.15625 11.84375 
Q 23.34375 6.203125 30.609375 6.203125 
Q 37.796875 6.203125 41.984375 11.859375 
Q 46.1875 17.53125 46.1875 27.296875 
Q 46.1875 37.015625 41.984375 42.703125 
Q 37.796875 48.390625 30.609375 48.390625 
M 30.609375 56 
Q 42.328125 56 49.015625 48.375 
Q 55.71875 40.765625 55.71875 27.296875 
Q 55.71875 13.875 49.015625 6.21875 
Q 42.328125 -1.421875 30.609375 -1.421875 
Q 18.84375 -1.421875 12.171875 6.21875 
Q 5.515625 13.875 5.515625 27.296875 
Q 5.515625 40.765625 12.171875 48.375 
Q 18.84375 56 30.609375 56 
" id="BitstreamVeraSans-Roman-6f"/>
     <path d="M 9.421875 54.6875 
L 18.40625 54.6875 
L 18.40625 0 
L 9.421875 0 
z
M 9.421875 75.984375 
L 18.40625 75.984375 
L 18.40625 64.59375 
L 9.421875 64.59375 
z
" id="BitstreamVeraSans-Roman-69"/>
     <path d="M 54.890625 33.015625 
L 54.890625 0 
L 45.90625 0 
L 45.90625 32.71875 
Q 45.90625 40.484375 42.875 44.328125 
Q 39.84375 48.1875 33.796875 48.1875 
Q 26.515625 48.1875 22.3125 43.546875 
Q 18.109375 38.921875 18.109375 30.90625 
L 18.109375 0 
L 9.078125 0 
L 9.078125 75.984375 
L 18.109375 75.984375 
L 18.109375 46.1875 
Q 21.34375 51.125 25.703125 53.5625 
Q 30.078125 56 35.796875 56 
Q 45.21875 56 50.046875 50.171875 
Q 54.890625 44.34375 54.890625 33.015625 
" id="BitstreamVeraSans-Roman-68"/>
     <path d="M 45.40625 46.390625 
L 45.40625 75.984375 
L 54.390625 75.984375 
L 54.390625 0 
L 45.40625 0 
L 45.40625 8.203125 
Q 42.578125 3.328125 38.25 0.953125 
Q 33.9375 -1.421875 27.875 -1.421875 
Q 17.96875 -1.421875 11.734375 6.484375 
Q 5.515625 14.40625 5.515625 27.296875 
Q 5.515625 40.1875 11.734375 48.09375 
Q 17.96875 56 27.875 56 
Q 33.9375 56 38.25 53.625 
Q 42.578125 51.265625 45.40625 46.390625 
M 14.796875 27.296875 
Q 14.796875 17.390625 18.875 11.75 
Q 22.953125 6.109375 30.078125 6.109375 
Q 37.203125 6.109375 41.296875 11.75 
Q 45.40625 17.390625 45.40625 27.296875 
Q 45.40625 37.203125 41.296875 42.84375 
Q 37.203125 48.484375 30.078125 48.484375 
Q 22.953125 48.484375 18.875 42.84375 
Q 14.796875 37.203125 14.796875 27.296875 
" id="BitstreamVeraSans-Roman-64"/>
     <path d="M 32.171875 -5.078125 
Q 28.375 -14.84375 24.75 -17.8125 
Q 21.140625 -20.796875 15.09375 -20.796875 
L 7.90625 -20.796875 
L 7.90625 -13.28125 
L 13.1875 -13.28125 
Q 16.890625 -13.28125 18.9375 -11.515625 
Q 21 -9.765625 23.484375 -3.21875 
L 25.09375 0.875 
L 2.984375 54.6875 
L 12.5 54.6875 
L 29.59375 11.921875 
L 46.6875 54.6875 
L 56.203125 54.6875 
z
" id="BitstreamVeraSans-Roman-79"/>
     <path d="M 44.28125 53.078125 
L 44.28125 44.578125 
Q 40.484375 46.53125 36.375 47.5 
Q 32.28125 48.484375 27.875 48.484375 
Q 21.1875 48.484375 17.84375 46.4375 
Q 14.5 44.390625 14.5 40.28125 
Q 14.5 37.15625 16.890625 35.375 
Q 19.28125 33.59375 26.515625 31.984375 
L 29.59375 31.296875 
Q 39.15625 29.25 43.1875 25.515625 
Q 47.21875 21.78125 47.21875 15.09375 
Q 47.21875 7.46875 41.1875 3.015625 
Q 35.15625 -1.421875 24.609375 -1.421875 
Q 20.21875 -1.421875 15.453125 -0.5625 
Q 10.6875 0.296875 5.421875 2 
L 5.421875 11.28125 
Q 10.40625 8.6875 15.234375 7.390625 
Q 20.0625 6.109375 24.8125 6.109375 
Q 31.15625 6.109375 34.5625 8.28125 
Q 37.984375 10.453125 37.984375 14.40625 
Q 37.984375 18.0625 35.515625 20.015625 
Q 33.0625 21.96875 24.703125 23.78125 
L 21.578125 24.515625 
Q 13.234375 26.265625 9.515625 29.90625 
Q 5.8125 33.546875 5.8125 39.890625 
Q 5.8125 47.609375 11.28125 51.796875 
Q 16.75 56 26.8125 56 
Q 31.78125 56 36.171875 55.265625 
Q 40.578125 54.546875 44.28125 53.078125 
" id="BitstreamVeraSans-Roman-73"/>
     <path d="M 11.71875 12.40625 
L 22.015625 12.40625 
L 22.015625 4 
L 14.015625 -11.625 
L 7.71875 -11.625 
L 11.71875 4 
z
" id="BitstreamVeraSans-Roman-2c"/>
     <path d="M 45.40625 27.984375 
Q 45.40625 37.75 41.375 43.109375 
Q 37.359375 48.484375 30.078125 48.484375 
Q 22.859375 48.484375 18.828125 43.109375 
Q 14.796875 37.75 14.796875 27.984375 
Q 14.796875 18.265625 18.828125 12.890625 
Q 22.859375 7.515625 30.078125 7.515625 
Q 37.359375 7.515625 41.375 12.890625 
Q 45.40625 18.265625 45.40625 27.984375 
M 54.390625 6.78125 
Q 54.390625 -7.171875 48.1875 -13.984375 
Q 42 -20.796875 29.203125 -20.796875 
Q 24.46875 -20.796875 20.265625 -20.09375 
Q 16.0625 -19.390625 12.109375 -17.921875 
L 12.109375 -9.1875 
Q 16.0625 -11.328125 19.921875 -12.34375 
Q 23.78125 -13.375 27.78125 -13.375 
Q 36.625 -13.375 41.015625 -8.765625 
Q 45.40625 -4.15625 45.40625 5.171875 
L 45.40625 9.625 
Q 42.625 4.78125 38.28125 2.390625 
Q 33.9375 0 27.875 0 
Q 17.828125 0 11.671875 7.65625 
Q 5.515625 15.328125 5.515625 27.984375 
Q 5.515625 40.671875 11.671875 48.328125 
Q 17.828125 56 27.875 56 
Q 33.9375 56 38.28125 53.609375 
Q 42.625 51.21875 45.40625 46.390625 
L 45.40625 54.6875 
L 54.390625 54.6875 
z
" id="BitstreamVeraSans-Roman-67"/>
     <path d="M 4.203125 54.6875 
L 13.1875 54.6875 
L 24.421875 12.015625 
L 35.59375 54.6875 
L 46.1875 54.6875 
L 57.421875 12.015625 
L 68.609375 54.6875 
L 77.59375 54.6875 
L 63.28125 0 
L 52.6875 0 
L 40.921875 44.828125 
L 29.109375 0 
L 18.5 0 
z
" id="BitstreamVeraSans-Roman-77"/>
     <path d="M 9.421875 75.984375 
L 18.40625 75.984375 
L 18.40625 0 
L 9.421875 0 
z
" id="BitstreamVeraSans-Roman-6c"/>
     <path d="M 54.890625 33.015625 
L 54.890625 0 
L 45.90625 0 
L 45.90625 32.71875 
Q 45.90625 40.484375 42.875 44.328125 
Q 39.84375 48.1875 33.796875 48.1875 
Q 26.515625 48.1875 22.3125 43.546875 
Q 18.109375 38.921875 18.109375 30.90625 
L 18.109375 0 
L 9.078125 0 
L 9.078125 54.6875 
L 18.109375 54.6875 
L 18.109375 46.1875 
Q 21.34375 51.125 25.703125 53.5625 
Q 30.078125 56 35.796875 56 
Q 45.21875 56 50.046875 50.171875 
Q 54.890625 44.34375 54.890625 33.015625 
" id="BitstreamVeraSans-Roman-6e"/>
    </defs>
    <g transform="translate(173.2046875 38.2)scale(0.2 -0.2)">
     <use xlink:href="#BitstreamVeraSans-Roman-44"/>
     <use x="77.001953125" xlink:href="#BitstreamVeraSans-Roman-61"/>
     <use x="138.28125" xlink:href="#BitstreamVeraSans-Roman-69"/>
     <use x="166.064453125" xlink:href="#BitstreamVeraSans-Roman-6c"/>
     <use x="193.84765625" xlink:href="#BitstreamVeraSans-Roman-79"/>
     <use x="253.02734375" xlink:href="#BitstreamVeraSans-Roman-20"/>
     <use x="284.814453125" xlink:href="#BitstreamVeraSans-Roman-68"/>
     <use x="348.193359375" xlink:href="#BitstreamVeraSans-Roman-69"/>
     <use x="375.9765625" xlink:href="#BitstreamVeraSans-Roman-67"/>
     <use x="439.453125" xlink:href="#BitstreamVeraSans-Roman-68"/>
     <use x="502.83203125" xlink:href="#BitstreamVeraSans-Roman-20"/>
     <use x="534.619140625" xlink:href="#BitstreamVeraSans-Roman-61"/>
     <use x="595.8984375" xlink:href="#BitstreamVeraSans-Roman-6e"/>
     <use x="659.27734375" xlink:href="#BitstreamVeraSans-Roman-64"/>
     <use x="722.75390625" xlink:href="#BitstreamVeraSans-Roman-20"/>
     <use x="754.541015625" xlink:href="#BitstreamVeraSans-Roman-6c"/>
     <use x="782.32421875" xlink:href="#BitstreamVeraSans-Roman-6f"/>
     <use x="843.505859375" xlink:href="#BitstreamVeraSans-Roman-77"/>
     <use x="925.29296875" xlink:href="#BitstreamVeraSans-Roman-20"/>
     <use x="957.080078125" xlink:href="#BitstreamVeraSans-Roman-74"/>
     <use x="996.2890625" xlink:href="#BitstreamVeraSans-Roman-65"/>
     <use x="1057.8125" xlink:href="#BitstreamVeraSans-Roman-6d"/>
     <use x="1155.224609375" xlink:href="#BitstreamVeraSans-Roman-70"/>
     <use x="1218.701171875" xlink:href="#BitstreamVeraSans-Roman-65"/>
     <use x="1280.224609375" xlink:href="#BitstreamVeraSans-Roman-72"/>
     <use x="1321.337890625" xlink:href="#BitstreamVeraSans-Roman-61"/>
     <use x="1382.6171875" xlink:href="#BitstreamVeraSans-Roman-74"/>
     <use x="1421.826171875" xlink:href="#BitstreamVeraSans-Roman-75"/>
     <use x="1485.205078125" xlink:href="#BitstreamVeraSans-Roman-72"/>
     <use x="1526.287109375" xlink:href="#BitstreamVeraSans-Roman-65"/>
     <use x="1587.810546875" xlink:href="#BitstreamVeraSans-Roman-73"/>
     <use x="1639.91015625" xlink:href="#BitstreamVeraSans-Roman-2c"/>
     <use x="1671.697265625" xlink:href="#BitstreamVeraSans-Roman-20"/>
     <use x="1703.484375" xlink:href="#BitstreamVeraSans-Roman-32"/>
     <use x="1767.107421875" xlink:href="#BitstreamVeraSans-Roman-30"/>
     <use x="1830.73046875" xlink:href="#BitstreamVeraSans-Roman-31"/>
     <use x="1894.353515625" xlink:href="#BitstreamVeraSans-Roman-34"/>
    </g>
   </g>
  </g>
 </g>
 <defs>
  <clipPath id="p291301ce53">
   <rect height="302.4" width="558.0" x="90.0" y="43.2"/>
  </clipPath>
 </defs>
</svg>
